<svg xmlns="http://www.w3.org/2000/svg" viewBox="0 0 224.12 239.54"><defs><style>.cls-1{fill:#fbfbfb;}.cls-2{fill:#050505;}</style></defs><title>gloves</title><g id="Layer_2" data-name="Layer 2"><g id="others"><path class="cls-1" d="M71,211.12c2.87-5,8.92-6.67,14.31-8.13,15.29-4.13,30-10.21,44.74-16.28a3.27,3.27,0,0,0,1.81-1.32,3.59,3.59,0,0,0-.12-2.68C126.1,165,116.9,147.37,119,128.79c.72-6.29,2.73-12.33,4.5-18.39a253.41,253.41,0,0,0,7.14-31.9c.47-3,.82-6.31-.79-8.82-2.44-3.8-7.89-3.54-11.93-1.83a27.51,27.51,0,0,0-9.08,6.29,6.69,6.69,0,0,1-2.94,2.21c-2.71.65-4.68-2.64-5.52-5.42-5.17-17.11-2.63-35.73-5.64-53.4-.91-5.35-2.64-11.07-7-14-6.08-4.17-15.64.44-16.61,8a24,24,0,0,0,.26,6.13l4.67,36.09q-3.6-16.66-8.33-33c-1.56-5.38-3.33-10.94-7.09-14.93S50.55,0,46.16,3.17C42.83,5.6,41.51,10.25,41.8,14.5s1.94,8.25,3.47,12.2A306.22,306.22,0,0,1,55.57,58L42.22,31.75c-2.44-4.8-5.08-9.82-9.49-12.66S21.6,16.61,19,21.3c-2.38,4.24-.49,9.62,1.43,14.12L37.13,74.63C32,71,29.13,64.75,26,59.09s-7.26-11.43-13.29-13A8.94,8.94,0,0,0,7,46.36c-3.23,1.39-5.11,5.14-5.39,8.8s.75,7.29,1.88,10.76c3.62,11.13,8.38,21.81,13.13,32.46,5.49,12.31,11,24.72,18.78,35.6,4,5.59,8.74,11.34,8.9,18.33.06,2.52-.51,5-.21,7.55.41,3.46,2.4,6.44,4.19,9.37a102,102,0,0,1,12.35,30.63c.75,3.33,1.42,6.89,3.63,9.41s6.58,3.25,8.53.51Z"/><path class="cls-2" d="M72.29,211.87c3.76-5.72,11-6.69,17.08-8.47,7.31-2.13,14.5-4.67,21.61-7.4,6.23-2.39,12.47-4.84,18.59-7.49,4.16-1.8,4.36-3.76,3.08-7.87-4-12.78-9.92-24.93-11.83-38.29-2.14-15,3.66-28.43,7.14-42.69,1.67-6.84,3.17-13.79,4.15-20.76.54-3.84,1-8.29-2-11.3-2.59-2.6-6.63-2.82-10-2A21.8,21.8,0,0,0,114.36,68a28.7,28.7,0,0,0-3,2c-1,.75-3.39,3.87-4.48,4.07-9.87,1.8-8.81-35.19-9.16-41.68-.5-9.24-.31-23.89-8.91-29.89-6.43-4.49-15.91-.8-18.54,6.39-2.19,6,.32,14.12,1.11,20.21l3.19,24.69,2.95-.4c-2.83-13-5.57-26.42-10.2-38.87C64.63,7.11,58.6-1.41,49.55.2c-9.32,1.65-10.27,12.62-8.19,20,1.79,6.41,4.71,12.56,6.87,18.86s4.12,12.78,5.9,19.25l2.74-1.16c-5.58-11-10.38-23.14-17.37-33.27-3.88-5.61-10.89-10.56-17.88-7.06C13.15,21.11,17.06,31.4,19.86,38q8,18.72,16,37.43l2.36-1.82C28.5,66,25.07,43.62,9.8,44.25,4,44.49.49,49.72.06,55.16-.61,63.76,4.28,73.27,7.44,81,14.35,98,21.51,115.59,31.5,131c2.29,3.52,4.93,6.81,7.19,10.35a23.47,23.47,0,0,1,3.87,14.77c-.31,8.64,5.33,14.82,8.95,22.28a100,100,0,0,1,6.1,15.94c1.14,3.95,1.65,8.19,3.19,12,2.09,5.17,8.29,9.42,13,4.52,1.13-1.17-.41-3.42-1.82-2.36l-1.76,1.34c-1.52,1.15,0,3.76,1.51,2.59l1.76-1.34-1.82-2.36c-6.3,6.54-9.25-7.68-10.06-11a103.27,103.27,0,0,0-4.22-13.35A105.24,105.24,0,0,0,52.12,173c-2.06-3.81-5.24-7.58-6.3-11.84-1.14-4.59.48-9.25-.9-13.89a36.16,36.16,0,0,0-5.46-10.12,176.84,176.84,0,0,1-13.87-22.81c-4.09-8.24-7.77-16.69-11.45-25.12-4-9.17-8.89-19.08-10.72-29-1.09-5.9,1-14.57,8.89-12.67,4.92,1.19,8.35,5.63,10.88,9.7,4,6.45,6.7,13.65,12.88,18.45a1.51,1.51,0,0,0,2.36-1.82L27,47.14c-2.6-6.1-13.7-24.3-3.16-27.95,8.58-3,13.9,7.17,17.07,13.31C45.41,41.22,49.83,50,54.28,58.71c.78,1.53,3.18.46,2.74-1.16-2.58-9.42-5.55-18.71-9-27.85C45.49,22.95,37.27,2.07,52.15,3.13c10.25.73,13,13.65,15.22,21.61q4.1,14.58,7.3,29.38c.35,1.62,3.17,1.3,2.95-.4C76,41.21,74,28.66,72.76,16.1c-.54-5.6,1.38-10.79,7.36-12.35C87.53,1.82,91.27,8.93,92.72,15c2.88,12,2.05,24.67,3,36.88A99,99,0,0,0,98,67.76c.77,3.18,1.76,7.92,5,9.58,2.87,1.45,4.85-.24,6.89-2.14,3.82-3.55,12.77-10.64,18.07-5.48,4.09,4,0,16-1,20.7q-2.06,9.89-4.89,19.59c-3.2,11-5.87,21.22-4.23,32.75,1.58,11.1,5.83,21.55,9.6,32,.6,1.66,1.19,3.32,1.75,5,1,2.81,2,3.75-1.31,6.21-2.36,1.74-6.11,2.51-8.84,3.62-6.48,2.62-13,5.16-19.61,7.44-6.37,2.2-13,3.73-19.32,5.91-4.29,1.47-7.89,3.57-10.42,7.41C68.63,212,71.23,213.48,72.29,211.87Z"/><path class="cls-1" d="M113.6,223.57a124.47,124.47,0,0,1,25.95,7.37c6.48,2.6,14,2,19.91,5.86,1,.64,2,1.4,3.15,1.29,1.86-.17,7.89-9,8.44-10.89,2.06-7.06,5.25-13.41,6.89-20.59,2.29-10,3.45-13.32,4.6-23,.32-2.69.6-12,0-10.9,9.54-40.8,23.12-71.84,39-110.39.88-2.14,1.76-4.58.94-6.75-.57-1.51-4.15-9.59-7.76-11.22-8-3.63-8.49-.29-10.34,0-3.21.5-5.44,3.88-6.72,7L182.42,88.59Q191,63,197.07,36.5c.58-2.54,1.14-5.24.35-7.71-1.38-4.3-6.1-6.1-10.24-7.34-2.48-.75-5.39-1.41-7.43.25a8.9,8.9,0,0,0-2.36,4.2L161,74l8.14-45.35a7.83,7.83,0,0,0,0-4.23,7.23,7.23,0,0,0-3.29-3.18c-5.37-3.28-12.94-6.27-17.06-1.38-1.55,1.84-2.1,4.37-2.58,6.79L136,77.21,137.87,54c.46-5.55,2.68-18.12-1.29-21.8-3.71-3.45-12.23-3.26-16.09,0s-5.46,15.1-6.43,20.21-1,10.39-2.08,15.48c-2,9.41-3,11.54-7.58,35.76-13.89-10-21.67-24.22-37.92-24.22-4.6,0-7.9,11.1-8,15.74-.11,3.37,3.39,11,5.74,13.32C78,121.86,81.43,123.07,90.62,137.6c5.14,8.12,8.71,9.56,6.89,18.16-2.3,10.9-1.69,15.62-2.3,18.16-2.71,11.33-4.91,14.43-7.62,25.75-.65,2.71-1.3,5.6-.48,8.26.91,3,3.41,5,5.78,6.84C99.11,219.63,113.6,223.57,113.6,223.57Z"/><path class="cls-2" d="M113.2,225c12.64,2.42,24.39,7.35,36.92,10,3.53.74,6.34,2.26,9.58,3.74,1.37.63,2.56,1.13,4,.54,2.74-1.09,5.18-5.51,6.67-7.83,2.76-4.27,3.93-9.35,5.68-14.09a160.86,160.86,0,0,0,5.74-20.7,98.09,98.09,0,0,0,2.38-15.31c.16-2.58,1-7.06-.28-9.47a1.52,1.52,0,0,0-2.36-.3l-.11.09,2.51,1.46c7.32-31,18.47-60.62,30.57-90,3-7.27,6.7-14.54,9.06-22,1.46-4.64-.48-8.41-2.91-12.33-2.55-4.12-5.81-6.93-10.85-7.47-2.63-.28-5.1,1-7.39,2.1-6.06,3-7.93,11.65-10.26,17.36L181,88.19l2.89.8q7-21.1,12.4-42.68c2.35-9.45,6.48-20.08-4.73-24.92-3.17-1.37-7.85-3.23-11.28-1.72-4.09,1.8-4.93,7.64-6.2,11.37l-14.5,42.53,2.89.8L169.9,32.8c.7-3.91,2.17-8.19-1.1-11.31A24.46,24.46,0,0,0,157.22,16c-11.39-2-12.39,9.72-14.06,18l-8.64,42.81,2.95.4c.75-9.07,1.36-18.16,2.33-27.2.55-5.12,1.61-11.41-.52-16.31-4-9.28-19.19-6.17-22.68,1.88-4.87,11.25-4.28,24.31-7,36.09-2.38,10.52-4.66,21-6.68,31.63l2.2-.9C97.79,97,91.82,89.91,84.47,84.46c-4.69-3.48-13.7-8.62-19.78-6.08-4.93,2.06-6.89,10.1-7.54,14.78-.78,5.65,2.24,12.3,6,16.44,5.27,5.83,11.77,10.48,17.05,16.32a81.17,81.17,0,0,1,7.43,9.79c2.42,3.67,5.4,7.24,7.5,11.09,2.54,4.66.61,9.62-.13,14.53-.48,3.22-.7,6.44-.95,9.68-.6,7.94-4.41,15.6-6.58,23.21-1.37,4.8-3.52,10.68-1.22,15.52,1.54,3.24,4.71,5.69,7.69,7.57,5.77,3.65,12.72,5.89,19.27,7.7a1.5,1.5,0,0,0,.8-2.89,88.3,88.3,0,0,1-14.77-5.36c-3.64-1.75-7.67-4-9.69-7.63-2.78-5,.06-11.78,1.66-16.94,2-6.31,4.82-12.67,5.69-19.26.29-2.17.28-4.39.48-6.57.4-4.32,1.6-8.52,2-12.83.64-6.86-3.93-11.31-7.46-16.7a97.32,97.32,0,0,0-11.36-14.92c-9.56-9.83-24.66-18.5-18.93-34.29,1.91-5.27,4.19-7.38,10-6.11A29.54,29.54,0,0,1,83,87c7.32,5.49,13.32,12.5,20.7,17.94a1.51,1.51,0,0,0,2.2-.9c1.78-9.34,3.65-18.65,5.81-27.9,2.12-9,2.9-18.19,4.55-27.32.84-4.6,1.44-11.4,4.74-15,2.37-2.57,6.76-3,10-2.45,4.46.75,5.94,3,6.34,7.25.45,4.81-.4,9.69-.86,14.47-.78,8-1.33,16-2,24-.14,1.68,2.61,2.05,2.95.4l6.28-31.13,3.14-15.57c1-5.19,1.59-12.55,8.68-12.12,5.26.32,12,3.57,12.18,9.43.16,4.73-1.87,10.44-2.71,15.12l-5.43,30.23a1.5,1.5,0,0,0,2.89.8l10.4-30.51c1.79-5.24,3.53-10.49,5.36-15.72,1.22-3.48,3-6.58,7.31-5.61A24.07,24.07,0,0,1,192,24.94c6.24,3.61,3.88,10.16,2.52,15.87q-1.91,8-4.05,15.94Q186.18,72.61,181,88.19c-.62,1.87,2.18,2.54,2.89.8L194.38,63.3c1.83-4.49,3.29-9.75,5.89-13.84,1.45-2.28,3.89-3.53,6.31-4.57,6.39-2.74,11,3.83,13.44,8.84,2,4.07.26,7.75-1.37,11.68l-4.93,11.91c-12.83,31-24.9,62.24-32.63,95a1.51,1.51,0,0,0,2.51,1.46l.11-.09-2.36-.3c1.08,2,0,7.37-.25,9.61a106.2,106.2,0,0,1-2.6,14.78,151.41,151.41,0,0,1-4.67,17.1c-1.75,4.82-3,10.3-5.73,14.64a41.91,41.91,0,0,1-3.44,4.79c-1.88,2.22-2.53,2-5.13.79-4.86-2.32-9.74-3-14.95-4.22-4.74-1.11-9.19-3.25-13.83-4.71a149.94,149.94,0,0,0-16.75-4C112.11,221.76,111.3,224.65,113.2,225Z"/></g></g></svg>