<?xml version="1.0" encoding="utf-8"?>
<!-- Generator: Adobe Illustrator 21.0.2, SVG Export Plug-In . SVG Version: 6.00 Build 0)  -->
<svg version="1.1" id="Layer_1" xmlns="http://www.w3.org/2000/svg" xmlns:xlink="http://www.w3.org/1999/xlink" x="0px" y="0px"
	 viewBox="0 0 512 512" style="enable-background:new 0 0 512 512;" xml:space="preserve">
<style type="text/css">
	.st0{fill:#3B5998;}
</style>
<path class="st0" d="M433.3,0H85.1C39.9,0,0,32.9,0,78.1v348.2C0,471.5,39.9,512,85.1,512h215.6c-0.4-67.1,0.1-141.8-0.2-206.8
	c-13.7-0.1-27.5-0.9-41.3-1.1c0.1-22.9,0-46.4,0-69.3c13.7-0.2,27.5-0.2,41.2-0.3c0.4-22.3-0.4-44.8,0.4-67.1
	c1.4-17.7,8.1-35.5,21.3-47.7c16-15.2,38.7-20.4,60.1-21c22.7-0.2,45.3-0.1,68-0.1c0.1,23.9,0.1,47.8,0,71.7c-14.7,0-29.3,0-44,0
	c-9.3-0.6-18.8,6.5-20.5,15.7c-0.2,16-0.1,32-0.1,48c21.5,0.1,43,0,64.5,0.1c-1.6,23.2-4.5,46.2-7.8,69.1c-19,0.2-38,1.9-56.9,2
	c-0.2,64.9,0,139.7-0.1,206.8h47.9c45.2,0,78.7-40.5,78.7-85.7V78.1C512,32.9,478.5,0,433.3,0z"/>
</svg>
