<svg xmlns="http://www.w3.org/2000/svg" viewBox="0 0 145 146.02"><defs><style>.cls-1{fill:none;stroke:#000;stroke-width:2px;}.cls-1,.cls-2{stroke-miterlimit:10;}.cls-2{fill:#fcfcfc;stroke:#b1b5b1;}.cls-3{fill:red;}</style></defs><title>icon</title><g id="Layer_2" data-name="Layer 2"><g id="Layer_1-2" data-name="Layer 1"><rect class="cls-1" x="6.39" y="6.91" width="132.21" height="132.21"/><path class="cls-2" d="M57.73.52c-5.2,3-14.32,6.62-16.84,7.7-2.35,1-14.61,3-16.1,5C16.2,24.68,7,39.77.52,51c-.51.88,9.91,6.46,22.79,12.42,0,0,10.65-9.19,9.16-17.14,4.2,2.32,1.92,43.39,2.48,70.81.25,12.17.14,21.78-1.24,23.85,0,0,5.45,4.47,16.84,4.22,16.56-.36,32.7,1.24,50-.25,3.3-.28,7.34-.43,10.21-2.24,1.49-.94-.55-1.73-.5-4.22.74-35.28-.52-89.91,1.49-92.43,0,9.19,7.43,12.17,9.91,17.39,12.38-7.21,23.9-11.56,22.79-12.92-3.47-4.22-9.79-16.79-13.87-22.61-6.44-9.19-6.19-12.17-10.16-14.16-9.05-4.54-10-2.22-19.07-6.21C98.42,6.19,89.43,1.26,87,.52,81,.52,63.18,1.26,57.73.52Z"/><polygon class="cls-3" points="3.54 78.22 117.66 78.22 117.66 97.57 142.45 72.07 117.66 46.57 117.66 65.92 3.54 65.92 3.54 78.22"/><path d="M28.61,61.84l34-40.27H80.14L40.7,67.26,80.37,122.5H62.74L31.32,77.59l-2.71,3.14V122.5H15.45V21.57H28.61Z"/><path d="M113.44,35.89V122.5H100.28V35.89H80.22V21.57h53.23V35.89Z"/></g></g></svg>