<svg xmlns="http://www.w3.org/2000/svg" viewBox="0 0 464.61 73.02"><defs><style>.cls-1{fill:red;}.cls-2{font-size:62.46px;fill:#020202;font-family:Futura-Medium, Futura;}.cls-3{letter-spacing:-0.01em;}.cls-4{letter-spacing:-0.03em;}</style></defs><title>kitmessages</title><g id="Layer_2" data-name="Layer 2"><g id="Layer_1-2" data-name="Layer 1"><rect class="cls-1" y="26.19" width="150" height="6.34"/><polygon class="cls-1" points="369.52 32.63 445.65 32.63 445.65 41.36 464.61 29.86 445.65 18.36 445.65 27.09 369.52 27.09 369.52 32.63"/><path d="M41.13,26.81,60.61,8.28H70.7l-22.63,21L70.83,54.72H60.71l-18-20.66L41.13,35.5V54.72H33.57V8.28h7.55Z"/><path d="M85.12,8.28V54.72H77.57V8.28Z"/><path d="M111,14.86V54.72h-7.55V14.86H91.9V8.28h30.54v6.59Z"/><text class="cls-2" transform="translate(137 55) scale(0.86 1)">MES<tspan class="cls-3" x="131.78" y="0">S</tspan><tspan class="cls-4" x="167.7" y="0">A</tspan><tspan x="211.83" y="0">GES</tspan></text></g></g></svg>