<svg xmlns="http://www.w3.org/2000/svg" viewBox="0 0 454 97.53"><defs><style>.cls-1{fill:none;}.cls-2{fill:#231f20;}.cls-3{fill:#fcfcfc;stroke:#000;stroke-miterlimit:10;stroke-width:2px;}.cls-4{fill:#020202;}.cls-5{fill:#fff;}</style></defs><title>logowide</title><g id="Layer_2" data-name="Layer 2"><g id="Layer_1-2" data-name="Layer 1"><rect class="cls-1" x="149.57" y="26.03" width="48" height="26"/><polygon class="cls-2" points="102.09 49.89 178.22 49.89 178.22 62.03 197.18 46.03 178.22 30.03 178.22 42.17 102.09 42.17 102.09 49.89"/><path d="M27.7,30.47,47.18,11.95H57.27L34.63,33,57.4,58.39H47.28l-18-20.66L27.7,39.17V58.39H20.14V11.95H27.7Z"/><path d="M71.69,11.95V58.39H64.14V11.95Z"/><path d="M97.54,18.53V58.39H90V18.53H78.47V11.95H109v6.59Z"/><path d="M208.26,18.53V58.39H200.7V18.53H189.19V11.95h30.54v6.59Z"/><path d="M243.43,38.59l15.5,19.79h-9.24l-14.3-19H234v19h-7.55V11.95h8.85q9.92,0,14.33,3.46a12.33,12.33,0,0,1,4.86,10.17,12.59,12.59,0,0,1-3,8.48A13.79,13.79,0,0,1,243.43,38.59ZM234,33.27h2.4q10.73,0,10.73-7.61,0-7.13-10.44-7.13H234Z"/><path d="M295.86,47.11H274.43l-5.58,11.28h-8.14L285.49,9l23.9,49.36h-8.27Zm-3.08-6.59-7.42-15.79-7.78,15.79Z"/><path d="M315.64,58.39V11.95h10.51a41,41,0,0,1,11.93,1.38,22.79,22.79,0,0,1,8.53,4.6q7.75,6.56,7.75,17.23a21.32,21.32,0,0,1-8.07,17.32,24.07,24.07,0,0,1-8.49,4.6A41.51,41.51,0,0,1,326,58.39Zm7.55-6.59h3.4a30.49,30.49,0,0,0,8.46-1,17.51,17.51,0,0,0,6.1-3.34,15.35,15.35,0,0,0,5.58-12.3,15.58,15.58,0,0,0-5.51-12.39q-5-4.24-14.62-4.24h-3.4Z"/><path d="M391.48,18.53H371.41V29.69H390.9v6.59H371.41V51.8h20.07v6.59H363.86V11.95h27.62Z"/><path d="M418.36,38.59l15.5,19.79h-9.24l-14.3-19H409v19H401.4V11.95h8.85q9.92,0,14.33,3.46a12.33,12.33,0,0,1,4.86,10.17,12.59,12.59,0,0,1-3,8.48A13.79,13.79,0,0,1,418.36,38.59ZM409,33.27h2.4q10.73,0,10.73-7.61,0-7.13-10.44-7.13H409Z"/><path class="cls-3" d="M141.25,1c-2.6,1.3-7.16,2.87-8.42,3.35s-7.31,1.3-8.05,2.16a177,177,0,0,0-12.14,16.41c-.25.38,5,2.81,11.4,5.4,0,0,5.33-4,4.58-7.45,2.1,1,1,18.85,1.24,30.77.12,5.29.07,9.46-.62,10.36,0,0,2.73,1.94,8.42,1.84,8.28-.16,16.35.54,25-.11,1.65-.12,3.67-.19,5.1-1,.75-.41-.27-.75-.25-1.84.37-15.33-.26-39.07.74-40.16,0,4,3.72,5.29,5,7.56,6.19-3.13,12-5,11.4-5.61-1.73-1.84-4.9-7.29-6.94-9.82-3.22-4-3.1-5.29-5.08-6.15-4.53-2-5-1-9.54-2.7-1.46-.56-5.95-2.7-7.18-3C152.9,1,144,1.35,141.25,1Z"/><rect class="cls-4" y="67.53" width="454" height="30"/><path class="cls-5" d="M31.57,74.5v3.11A6.94,6.94,0,0,0,27,75.71a5.72,5.72,0,0,0-4.38,1.93,6.61,6.61,0,0,0-1.79,4.69,6.45,6.45,0,0,0,1.79,4.62A5.82,5.82,0,0,0,27,88.83a5.25,5.25,0,0,0,2.28-.45,6.57,6.57,0,0,0,1.09-.61,12.84,12.84,0,0,0,1.18-.92V90A9,9,0,0,1,27,91.28a8.33,8.33,0,0,1-6.17-2.6,8.78,8.78,0,0,1-2.54-6.33,9.11,9.11,0,0,1,2.13-5.93A8.57,8.57,0,0,1,31.57,74.5Z"/><path class="cls-5" d="M33.83,82.19a8.66,8.66,0,0,1,2.61-6.31,8.45,8.45,0,0,1,6.24-2.64,8.3,8.3,0,0,1,6.18,2.66,8.84,8.84,0,0,1,2.59,6.39,8.69,8.69,0,0,1-2.6,6.37A8.7,8.7,0,0,1,36.69,89,8.67,8.67,0,0,1,33.83,82.19Zm2.57,0A6.39,6.39,0,0,0,38.27,87a6.08,6.08,0,0,0,8.79,0,6.91,6.91,0,0,0,0-9.33,6.15,6.15,0,0,0-8.88,0A6.38,6.38,0,0,0,36.4,82.22Z"/><path class="cls-5" d="M54.65,91V72.38L66.94,85.66V73.57h2.54V92L57.19,78.79V91Z"/><path class="cls-5" d="M73.52,91V72.38L85.82,85.66V73.57h2.54V92L76.07,78.79V91Z"/><path class="cls-5" d="M101.7,76H94.94v4.18h6.56v2.47H94.94V88.5h6.76V91H92.4V73.57h9.3Z"/><path class="cls-5" d="M117.5,74.5v3.11a6.94,6.94,0,0,0-4.56-1.9,5.72,5.72,0,0,0-4.38,1.93,6.61,6.61,0,0,0-1.79,4.69,6.45,6.45,0,0,0,1.79,4.62,5.82,5.82,0,0,0,4.39,1.88,5.25,5.25,0,0,0,2.28-.45,6.57,6.57,0,0,0,1.09-.61,12.84,12.84,0,0,0,1.18-.92V90a9,9,0,0,1-4.59,1.27,8.33,8.33,0,0,1-6.17-2.6,8.78,8.78,0,0,1-2.54-6.33,9.11,9.11,0,0,1,2.13-5.93A8.57,8.57,0,0,1,117.5,74.5Z"/><path class="cls-5" d="M125.36,76V91h-2.54V76h-3.88V73.57h10.28V76Z"/><path class="cls-5" d="M134,73.57V91h-2.54V73.57Z"/><path class="cls-5" d="M138.08,91V72.38l12.29,13.28V73.57h2.54V92L140.63,78.79V91Z"/><path class="cls-5" d="M165.8,81.91h7v.58a12.24,12.24,0,0,1-.45,3.47,7.42,7.42,0,0,1-1.47,2.61,7.53,7.53,0,0,1-6,2.73,8.09,8.09,0,0,1-6.06-2.64,9.3,9.3,0,0,1,0-12.78,8.65,8.65,0,0,1,9.93-1.81,10.72,10.72,0,0,1,3.22,2.7l-1.81,1.79a6.1,6.1,0,0,0-5.05-2.85,6,6,0,0,0-4.49,1.9,6.47,6.47,0,0,0-1.81,4.69,6.26,6.26,0,0,0,2,4.79A5.92,5.92,0,0,0,165,88.84a5,5,0,0,0,3.37-1.31A4.7,4.7,0,0,0,170,84.38h-4.2Z"/><path class="cls-5" d="M185.41,83.9V91h-2.54V73.57h2.88a12.61,12.61,0,0,1,3.2.3A4.26,4.26,0,0,1,190.87,75a5,5,0,0,1,1.45,3.7,4.84,4.84,0,0,1-1.55,3.79,6,6,0,0,1-4.18,1.4Zm0-2.43h.95q3.5,0,3.5-2.78T186.25,76h-.84Z"/><path class="cls-5" d="M197.48,73.57V88.5h5V91h-7.5V73.57Z"/><path class="cls-5" d="M215.69,86.74h-7.22L206.6,91h-2.74l8.34-18.49,8,18.49h-2.78Zm-1-2.47-2.5-5.92-2.62,5.92Z"/><path class="cls-5" d="M224.28,83.45l-5.5-9.88h2.93l3.85,7,3.86-7h2.93l-5.52,9.88V91h-2.54Z"/><path class="cls-5" d="M243.59,76h-6.76v4.18h6.56v2.47h-6.56V88.5h6.76V91h-9.3V73.57h9.3Z"/><path class="cls-5" d="M252.64,83.55,257.86,91h-3.11l-4.81-7.12h-.46V91h-2.54V73.57h3q3.34,0,4.83,1.3a4.83,4.83,0,0,1,1.64,3.81,5,5,0,0,1-1,3.18A4.55,4.55,0,0,1,252.64,83.55Zm-3.17-2h.81q3.61,0,3.61-2.85,0-2.67-3.52-2.67h-.91Z"/><path class="cls-5" d="M269.92,76.16l-2.06,1.26a3.64,3.64,0,0,0-1.1-1.35,2.52,2.52,0,0,0-1.41-.36,2.55,2.55,0,0,0-1.76.62,2,2,0,0,0-.7,1.53q0,1.27,1.83,2.05l1.68.71a7.18,7.18,0,0,1,3,2.09,4.81,4.81,0,0,1,.95,3,5.41,5.41,0,0,1-1.55,4,5.23,5.23,0,0,1-3.87,1.58,5.09,5.09,0,0,1-3.62-1.34,6.25,6.25,0,0,1-1.76-3.77l2.58-.59a4.63,4.63,0,0,0,.61,2.12A2.84,2.84,0,0,0,267,88a2.89,2.89,0,0,0,.79-2.08,3,3,0,0,0-.14-.93,2.37,2.37,0,0,0-.43-.78,3.43,3.43,0,0,0-.75-.66,7,7,0,0,0-1.09-.59l-1.63-.7q-3.46-1.51-3.46-4.42a4.25,4.25,0,0,1,1.45-3.28,5.15,5.15,0,0,1,3.61-1.33A5,5,0,0,1,269.92,76.16Z"/><path class="cls-5" d="M285,76V91h-2.54V76h-3.88V73.57h10.28V76Z"/><path class="cls-5" d="M289.74,82.19a8.66,8.66,0,0,1,2.61-6.31,8.45,8.45,0,0,1,6.24-2.64,8.3,8.3,0,0,1,6.18,2.66,8.84,8.84,0,0,1,2.59,6.39,8.69,8.69,0,0,1-2.6,6.37A8.7,8.7,0,0,1,292.6,89,8.67,8.67,0,0,1,289.74,82.19Zm2.57,0A6.39,6.39,0,0,0,294.18,87a6.08,6.08,0,0,0,8.79,0,6.91,6.91,0,0,0,0-9.33,6.15,6.15,0,0,0-8.87,0A6.38,6.38,0,0,0,292.3,82.22Z"/><path class="cls-5" d="M320,73.57V84a5.92,5.92,0,0,0,.71,3.28,3.72,3.72,0,0,0,6,0,5.81,5.81,0,0,0,.71-3.28V73.57h2.54v11.2a6.39,6.39,0,0,1-1.66,4.53,6.28,6.28,0,0,1-9.16,0,6.39,6.39,0,0,1-1.66-4.53V73.57Z"/><path class="cls-5" d="M334,91V72.38l12.29,13.28V73.57h2.54V92L336.52,78.79V91Z"/><path class="cls-5" d="M355.39,73.57V91h-2.54V73.57Z"/><path class="cls-5" d="M367.86,76H362v4.18h5.67v2.47H362V91h-2.54V73.57h8.42Z"/><path class="cls-5" d="M370,82.19a8.66,8.66,0,0,1,2.61-6.31,8.45,8.45,0,0,1,6.24-2.64A8.3,8.3,0,0,1,385,75.9a8.84,8.84,0,0,1,2.59,6.39,8.69,8.69,0,0,1-2.6,6.37,8.7,8.7,0,0,1-12.16.29A8.67,8.67,0,0,1,370,82.19Zm2.57,0A6.39,6.39,0,0,0,374.43,87a6.08,6.08,0,0,0,8.79,0,6.91,6.91,0,0,0,0-9.33,6.15,6.15,0,0,0-8.87,0A6.38,6.38,0,0,0,372.55,82.22Z"/><path class="cls-5" d="M396.51,83.55,401.73,91h-3.11l-4.81-7.12h-.46V91H390.8V73.57h3q3.34,0,4.83,1.3a4.83,4.83,0,0,1,1.64,3.81,5,5,0,0,1-1,3.18A4.55,4.55,0,0,1,396.51,83.55Zm-3.17-2h.81q3.61,0,3.61-2.85,0-2.67-3.52-2.67h-.91Z"/><path class="cls-5" d="M403.68,91l3.55-18.71L413,85.78l6-13.52L422.19,91h-2.61L418,80.47l-5,11.3-4.85-11.32L406.31,91Z"/><path class="cls-5" d="M435.29,76.16l-2.06,1.26a3.64,3.64,0,0,0-1.1-1.35,2.52,2.52,0,0,0-1.41-.36,2.55,2.55,0,0,0-1.76.62,2,2,0,0,0-.7,1.53q0,1.27,1.83,2.05l1.68.71a7.18,7.18,0,0,1,3,2.09,4.81,4.81,0,0,1,.95,3,5.41,5.41,0,0,1-1.55,4,5.23,5.23,0,0,1-3.87,1.58,5.09,5.09,0,0,1-3.62-1.34,6.25,6.25,0,0,1-1.76-3.77l2.58-.59a4.63,4.63,0,0,0,.61,2.12,2.84,2.84,0,0,0,4.27.3,2.89,2.89,0,0,0,.79-2.08A3,3,0,0,0,433,85a2.37,2.37,0,0,0-.43-.78,3.43,3.43,0,0,0-.75-.66,7,7,0,0,0-1.09-.59l-1.63-.7q-3.46-1.51-3.46-4.42a4.25,4.25,0,0,1,1.45-3.28,5.15,5.15,0,0,1,3.61-1.33A5,5,0,0,1,435.29,76.16Z"/></g></g></svg>