<svg xmlns="http://www.w3.org/2000/svg" viewBox="0 0 316.82 193.1"><defs><style>.cls-1{fill:#fcfcfc;stroke:#000;stroke-miterlimit:10;stroke-width:2px;}.cls-2{fill:#231f20;}.cls-3{fill:#020202;}.cls-4{fill:#fff;}</style></defs><title>logosquare</title><g id="Layer_2" data-name="Layer 2"><g id="Layer_1-2" data-name="Layer 1"><path class="cls-1" d="M136,1C128.13,5,114.29,9.75,110.47,11.18c-3.56,1.33-22.17,3.93-24.42,6.55-13,15.14-27,35-36.82,49.76-.77,1.16,15,8.51,34.56,16.37,0,0,16.15-12.11,13.9-22.59,6.37,3.06,2.91,57.18,3.76,93.31.38,16,.21,28.7-1.88,31.43,0,0,8.26,5.89,25.55,5.57,25.11-.48,49.59,1.64,75.81-.33,5-.37,11.13-.57,15.48-2.95,2.27-1.24-.83-2.29-.75-5.57,1.13-46.49-.79-118.48,2.25-121.79,0,12.11,11.27,16,15,22.92,18.78-9.49,36.25-15.24,34.56-17-5.26-5.57-14.85-22.12-21-29.79-9.77-12.11-9.39-16-15.4-18.66-13.73-6-15.22-2.92-28.93-8.18C197.72,8.5,184.1,2,180.35,1,171.33,1,144.28,2,136,1Z"/><polygon class="cls-2" points="68.32 120.31 95.44 120.31 95.44 130.88 111.96 116.94 95.44 103 95.44 113.58 68.32 113.58 68.32 120.31"/><path d="M7.87,112.1,24.84,96h8.78L13.91,114.28l19.83,22.14H24.93l-15.71-18-1.36,1.26v16.74H1.28V96H7.87Z"/><path d="M46.2,96v40.46H39.62V96Z"/><path d="M68.71,101.7v34.72H62.13V101.7h-10V96H78.71v5.74Z"/><path d="M119,101.7v34.72h-6.58V101.7h-10V96H129v5.74Z"/><path d="M149.64,119.18l13.5,17.24h-8.05l-12.46-16.56h-1.19v16.56h-6.58V96h7.71q8.64,0,12.49,3a10.74,10.74,0,0,1,4.24,8.86,11,11,0,0,1-2.66,7.39A12,12,0,0,1,149.64,119.18Zm-8.19-4.64h2.09q9.35,0,9.35-6.63,0-6.21-9.1-6.21h-2.34Z"/><path d="M195.32,126.59H176.65l-4.86,9.83H164.7l21.58-43,20.82,43h-7.2Zm-2.68-5.74-6.47-13.76-6.78,13.76Z"/><path d="M212.55,136.42V96h9.15a35.75,35.75,0,0,1,10.39,1.21,19.86,19.86,0,0,1,7.43,4,19.89,19.89,0,0,1-.28,30.11,21,21,0,0,1-7.4,4,36.16,36.16,0,0,1-10.25,1.13Zm6.58-5.74h3a26.56,26.56,0,0,0,7.37-.86,15.26,15.26,0,0,0,5.31-2.91,13.38,13.38,0,0,0,4.86-10.72,13.58,13.58,0,0,0-4.8-10.8q-4.32-3.69-12.74-3.69h-3Z"/><path d="M278.62,101.7H261.14v9.72h17v5.74h-17v13.52h17.49v5.74H254.55V96h24.07Z"/><path d="M302,119.18l13.5,17.24h-8.05L295,119.86h-1.19v16.56h-6.58V96H295q8.64,0,12.49,3a10.74,10.74,0,0,1,4.24,8.86,11,11,0,0,1-2.66,7.39A12,12,0,0,1,302,119.18Zm-8.19-4.64h2.09q9.35,0,9.35-6.63,0-6.21-9.1-6.21h-2.34Z"/><rect class="cls-3" y="141.45" width="316.82" height="26.26"/><path class="cls-4" d="M14.48,148.95v2.29a5.11,5.11,0,0,0-3.36-1.4,4.22,4.22,0,0,0-3.22,1.42,4.87,4.87,0,0,0-1.32,3.45,4.75,4.75,0,0,0,1.32,3.4,4.29,4.29,0,0,0,3.23,1.39,3.87,3.87,0,0,0,1.68-.33,4.84,4.84,0,0,0,.8-.45,9.46,9.46,0,0,0,.87-.68v2.33a6.61,6.61,0,0,1-3.38.94,6.13,6.13,0,0,1-4.54-1.92,6.46,6.46,0,0,1-1.87-4.66,6.71,6.71,0,0,1,1.57-4.37,6.31,6.31,0,0,1,8.22-1.41Z"/><path class="cls-4" d="M16.14,154.61A6.37,6.37,0,0,1,18.06,150a6.22,6.22,0,0,1,4.6-1.94,6.11,6.11,0,0,1,4.55,2,6.51,6.51,0,0,1,1.91,4.71,6.4,6.4,0,0,1-1.91,4.69,6.41,6.41,0,0,1-9,.22A6.39,6.39,0,0,1,16.14,154.61Zm1.89,0a4.71,4.71,0,0,0,1.38,3.49,4.48,4.48,0,0,0,6.47,0,5.09,5.09,0,0,0,0-6.87,4.53,4.53,0,0,0-6.54,0A4.7,4.7,0,0,0,18,154.63Z"/><path class="cls-4" d="M31.47,161.08V147.39l9.05,9.78v-8.91H42.4v13.6l-9.05-9.75v9Z"/><path class="cls-4" d="M45.38,161.08V147.39l9.05,9.78v-8.91H56.3v13.6l-9.05-9.75v9Z"/><path class="cls-4" d="M66.13,150.08h-5v3.08H66V155H61.15v4.28h5v1.82H59.28V148.26h6.85Z"/><path class="cls-4" d="M77.76,148.95v2.29a5.11,5.11,0,0,0-3.36-1.4,4.22,4.22,0,0,0-3.22,1.42,4.87,4.87,0,0,0-1.32,3.45,4.75,4.75,0,0,0,1.32,3.4,4.29,4.29,0,0,0,3.23,1.39,3.87,3.87,0,0,0,1.68-.33,4.84,4.84,0,0,0,.8-.45,9.46,9.46,0,0,0,.87-.68v2.33a6.61,6.61,0,0,1-3.38.94,6.13,6.13,0,0,1-4.54-1.92A6.46,6.46,0,0,1,68,154.73a6.71,6.71,0,0,1,1.57-4.37,6.31,6.31,0,0,1,8.22-1.41Z"/><path class="cls-4" d="M83.55,150.08v11H81.68v-11H78.82v-1.82H86.4v1.82Z"/><path class="cls-4" d="M89.94,148.26v12.82H88.07V148.26Z"/><path class="cls-4" d="M92.92,161.08V147.39l9.05,9.78v-8.91h1.87v13.6L94.8,152.1v9Z"/><path class="cls-4" d="M113.34,154.4h5.13v.42a9,9,0,0,1-.33,2.56,5.47,5.47,0,0,1-1.09,1.93,5.55,5.55,0,0,1-4.4,2,6,6,0,0,1-4.46-1.94,6.85,6.85,0,0,1,0-9.41,6.37,6.37,0,0,1,7.32-1.34,7.9,7.9,0,0,1,2.37,2l-1.33,1.32a4.49,4.49,0,0,0-3.72-2.1,4.38,4.38,0,0,0-3.3,1.4,4.77,4.77,0,0,0-1.33,3.45,4.61,4.61,0,0,0,1.49,3.53,4.36,4.36,0,0,0,3,1.29,3.68,3.68,0,0,0,2.48-1,3.46,3.46,0,0,0,1.23-2.32h-3.1Z"/><path class="cls-4" d="M127.78,155.87v5.2h-1.87V148.26H128a9.29,9.29,0,0,1,2.36.22,3.14,3.14,0,0,1,1.42.85,3.71,3.71,0,0,1,1.07,2.72,3.57,3.57,0,0,1-1.14,2.79,4.43,4.43,0,0,1-3.08,1Zm0-1.79h.7q2.58,0,2.58-2.05t-2.66-2h-.62Z"/><path class="cls-4" d="M136.67,148.26v11h3.65v1.82H134.8V148.26Z"/><path class="cls-4" d="M150.08,158h-5.31l-1.38,3.11h-2l6.14-13.62,5.93,13.62h-2.05Zm-.76-1.82-1.84-4.36-1.93,4.36Z"/><path class="cls-4" d="M156.41,155.54l-4.05-7.28h2.15l2.84,5.12,2.85-5.12h2.16l-4.07,7.28v5.54h-1.87Z"/><path class="cls-4" d="M170.63,150.08h-5v3.08h4.83V155h-4.83v4.28h5v1.82h-6.85V148.26h6.85Z"/><path class="cls-4" d="M177.3,155.61l3.84,5.46h-2.29l-3.55-5.25H175v5.25h-1.87V148.26h2.2a5.36,5.36,0,0,1,3.55,1A3.56,3.56,0,0,1,180,152a3.72,3.72,0,0,1-.76,2.34A3.35,3.35,0,0,1,177.3,155.61ZM175,154.15h.6q2.66,0,2.66-2.1t-2.59-2H175Z"/><path class="cls-4" d="M190,150.17l-1.52.93a2.68,2.68,0,0,0-.81-1,1.85,1.85,0,0,0-1-.27,1.88,1.88,0,0,0-1.29.46,1.43,1.43,0,0,0-.51,1.13q0,.94,1.35,1.51l1.24.52a5.29,5.29,0,0,1,2.21,1.54,3.54,3.54,0,0,1,.7,2.23,4,4,0,0,1-1.14,2.92,3.85,3.85,0,0,1-2.85,1.16,3.75,3.75,0,0,1-2.67-1,4.61,4.61,0,0,1-1.29-2.78l1.9-.43a3.41,3.41,0,0,0,.45,1.56,2.09,2.09,0,0,0,3.14.22,2.13,2.13,0,0,0,.58-1.54,2.22,2.22,0,0,0-.1-.68,1.75,1.75,0,0,0-.31-.57,2.53,2.53,0,0,0-.55-.49,5.19,5.19,0,0,0-.8-.44l-1.2-.51q-2.55-1.11-2.55-3.25A3.13,3.13,0,0,1,184,149a3.79,3.79,0,0,1,2.66-1A3.71,3.71,0,0,1,190,150.17Z"/><path class="cls-4" d="M201.11,150.08v11h-1.87v-11h-2.85v-1.82H204v1.82Z"/><path class="cls-4" d="M204.62,154.61a6.37,6.37,0,0,1,1.92-4.65,6.22,6.22,0,0,1,4.6-1.94,6.11,6.11,0,0,1,4.55,2,6.51,6.51,0,0,1,1.91,4.71,6.4,6.4,0,0,1-1.91,4.69,6.41,6.41,0,0,1-9,.22A6.39,6.39,0,0,1,204.62,154.61Zm1.89,0a4.71,4.71,0,0,0,1.38,3.49,4.48,4.48,0,0,0,6.47,0,5.09,5.09,0,0,0,0-6.87,4.53,4.53,0,0,0-6.54,0A4.7,4.7,0,0,0,206.51,154.63Z"/><path class="cls-4" d="M226.91,148.26V156a4.36,4.36,0,0,0,.52,2.41,2.74,2.74,0,0,0,4.4,0,4.28,4.28,0,0,0,.52-2.41v-7.72h1.87v8.25a4.7,4.7,0,0,1-1.22,3.34,4.63,4.63,0,0,1-6.75,0,4.7,4.7,0,0,1-1.22-3.34v-8.25Z"/><path class="cls-4" d="M237.2,161.08V147.39l9.05,9.78v-8.91h1.87v13.6l-9.05-9.75v9Z"/><path class="cls-4" d="M253,148.26v12.82H251.1V148.26Z"/><path class="cls-4" d="M262.15,150.08h-4.33v3.08H262V155h-4.17v6.1H256V148.26h6.2Z"/><path class="cls-4" d="M263.72,154.61a6.37,6.37,0,0,1,1.92-4.65,6.22,6.22,0,0,1,4.6-1.94,6.11,6.11,0,0,1,4.55,2,6.51,6.51,0,0,1,1.91,4.71,6.4,6.4,0,0,1-1.91,4.69,6.41,6.41,0,0,1-9,.22A6.39,6.39,0,0,1,263.72,154.61Zm1.89,0a4.71,4.71,0,0,0,1.38,3.49,4.48,4.48,0,0,0,6.47,0,5.09,5.09,0,0,0,0-6.87,4.53,4.53,0,0,0-6.54,0A4.7,4.7,0,0,0,265.61,154.63Z"/><path class="cls-4" d="M283.26,155.61l3.84,5.46h-2.29l-3.55-5.25h-.34v5.25h-1.87V148.26h2.2a5.36,5.36,0,0,1,3.55,1A3.56,3.56,0,0,1,286,152a3.72,3.72,0,0,1-.76,2.34A3.35,3.35,0,0,1,283.26,155.61Zm-2.33-1.47h.6q2.66,0,2.66-2.1t-2.59-2h-.67Z"/><path class="cls-4" d="M288.53,161.08l2.61-13.78,4.26,10,4.41-10,2.35,13.78h-1.92l-1.2-7.74-3.67,8.33-3.57-8.33-1.33,7.74Z"/><path class="cls-4" d="M311.82,150.17l-1.52.93a2.68,2.68,0,0,0-.81-1,1.85,1.85,0,0,0-1-.27,1.88,1.88,0,0,0-1.29.46,1.43,1.43,0,0,0-.51,1.13q0,.94,1.35,1.51l1.24.52a5.29,5.29,0,0,1,2.21,1.54,3.54,3.54,0,0,1,.7,2.23,4,4,0,0,1-1.14,2.92,3.85,3.85,0,0,1-2.85,1.16,3.75,3.75,0,0,1-2.67-1,4.61,4.61,0,0,1-1.29-2.78l1.9-.43a3.41,3.41,0,0,0,.45,1.56,2.09,2.09,0,0,0,3.14.22,2.13,2.13,0,0,0,.58-1.54,2.22,2.22,0,0,0-.1-.68,1.75,1.75,0,0,0-.31-.57,2.53,2.53,0,0,0-.55-.49,5.19,5.19,0,0,0-.8-.44l-1.2-.51q-2.55-1.11-2.55-3.25A3.13,3.13,0,0,1,305.8,149a3.79,3.79,0,0,1,2.66-1A3.71,3.71,0,0,1,311.82,150.17Z"/></g></g></svg>