<?xml version="1.0" encoding="utf-8"?>
<!-- Generator: Adobe Illustrator 21.0.2, SVG Export Plug-In . SVG Version: 6.00 Build 0)  -->
<svg version="1.1" id="Layer_1" xmlns="http://www.w3.org/2000/svg" xmlns:xlink="http://www.w3.org/1999/xlink" x="0px" y="0px"
	 viewBox="0 0 512 512" style="enable-background:new 0 0 512 512;" xml:space="preserve">
<style type="text/css">
	.st0{fill:#D84B37;}
</style>
<path class="st0" d="M76.1,386.5c0,32.2,30.4,51.2,71.6,51.2h0.5c42.2,0,78.9-23.1,79.5-56.4c0-37.4-41.2-45.5-98.6-55.8
	c-6.3-1.2-9.8-1.2-15.2,2.3C96.7,339.9,76.1,358.8,76.1,386.5L76.1,386.5z"/>
<path class="st0" d="M154,80.8c-38.2,0-56.9,39.2-56.9,86.9c0,45.5,23.5,73.7,51.5,73.7h0.5c29,0,54.5-24.7,54.5-82.9
	C203.6,114.2,186.4,80.8,154,80.8L154,80.8z"/>
<path class="st0" d="M432.7,0H79.3C35.5,0,0,35.5,0,79.3v353.5C0,476.5,35.5,512,79.3,512h353.4c43.8,0,79.3-35.5,79.3-79.3V79.3
	C512,35.5,476.5,0,432.7,0L432.7,0z M268.2,69.7L219,77.2c16.4,14.9,25.4,41.6,25.4,65.7c0,61.4-40.7,97.4-95.1,106.7
	c-6.9,1.3-16.3,3.1-25.9,7.5c-21.1,6.8-40.7,16.7-40.7,25.4c0,11.2,39.1,17.4,75,22.9c68.7,9.3,110.9,21.1,110.9,66.4
	c0,51.5-56.5,91.2-141.6,91.2c-64.5,0-110.9-20.5-110.9-59.5c0-28.6,21.6-42.2,81.4-78.8c-16.4-4.3-32.8-10.5-41.2-15.5
	c-6.4-3.7-10-10.6-10-23.6c0-4.9,1-6.8,4.2-8.7c20.1-9.3,41.2-19.2,57.6-26.7c-35.9-6.2-68.7-36.6-68.7-80.7V169
	c0-62.7,47-112.3,113.6-112.3c18.4,0,30.1,2.5,39.1,3.7c4.2,1.2,8.5,1.2,12.6,1.2l65.5-0.6c1.1,0,1.6,0.6,1.6,1.2
	C271.9,65.4,270.3,69.7,268.2,69.7L268.2,69.7z M495.8,160.8h-83.8v83.8h-27.9v-83.8h-83.8v-27.9h83.8V49.1h27.9v83.8h83.8V160.8z"
	/>
</svg>
