<svg xmlns="http://www.w3.org/2000/svg" viewBox="0 0 481.09 610.64"><defs><style>.cls-1{fill:#f8f9f7;}.cls-2{fill:#020202;}</style></defs><title>jacket</title><g id="Layer_2" data-name="Layer 2"><g id="jacket"><path class="cls-1" d="M192.57,1.54c-8.9,9.91-16.53,17.77-19.11,30.55-1.1,5.46-2.79,10.84-6.12,15.21-2.93,3.85-11.1,4.4-15.31,6.52-20.4,10.31-41.47,19.83-63.27,26.08-26.53,7.61-50.4,19.18-61.23,44.55-5.1,12-12.19,22.51-13.84,34.8C-7.17,314.61,5.08,328.73,5.08,606.9c15.31,4.35,34.7,1.09,49,1.09,18.37-78.23,21.81-152.42,30-230.84,2.3-22,5.31-26.34,3.67-48.42-1.57-21.11,4.08-22.82,5.51-79.3,10.82-2.19,16.94,169.49,5.71,268.37-.74,6.5-7.52,55.78-3.06,60.3,1.85,1.88,4.19,3.66,6.75,3.78,48.36,2.2,86.55,8,130,4.38,39.58-3.29,78.7-2.77,118.26-6.32,9.57-.86,25.37-.86,29.71-10,2.42-5.07-2.64-13.07-3.13-18.74a1615.72,1615.72,0,0,1,3.16-308.41c6,23.33,8.48,45.6,11.19,69.62,10.21,90.19,4.45,141.32,22.45,230.36.62,3.08,3,48.87,5.1,51.07,1.87,1.95,2.21,3.51,4.74,4.22,10.36,2.91,19.14-2.05,32,3.38,6.5,2.75,13.53,8.16,15.31,4.35,6.19-13.24,7.37-35.59,7.66-50.38,1.77-90.88-2.71-181.75-7.2-272.53-2.27-45.9-4.59-92.17-15.55-136.63-5.88-23.85-10.42-52.25-34.92-59.86-18-5.59-39.8-14.49-58.17-18.47-20.15-4.36-34.57-12.6-53.4-21.4-5.26-2.46-3.72-.61-6.81-5.76-6.38-10.61-9.07-29.7-19.39-35.86C280.4,3,272,1.81,268.37,2.75,239.91,10.14,192.57,1.54,192.57,1.54Z"/><path class="cls-2" d="M191.51.48c-4.7,5.22-9.58,10.38-13.37,16.32s-5.23,12.18-7.08,19c-1.12,4.08-2.78,9.11-6.24,11.79-2.76,2.14-6.78,2.6-10,3.63-7,2.22-13.56,6.38-20.2,9.49A373.05,373.05,0,0,1,84.83,79.5c-12.47,3.79-24.89,8.68-35.58,16.26s-18.34,17.53-23.72,29.56c-3.11,6.94-6.85,13.6-9.68,20.67-2.53,6.29-3.58,12.65-4.46,19.31C9,183.73,6.73,202.19,4.91,220.69q-4.4,44.89-4.85,90c-.32,34.37.64,68.74,1.37,103.1q1.75,83,2.11,166.1,0,13.51,0,27a1.53,1.53,0,0,0,1.1,1.45c16.2,4.3,32.92,1.26,49.38,1.14a1.52,1.52,0,0,0,1.45-1.1C69.26,549.45,75.06,489.25,80.57,429.1c1.35-14.74,2.71-29.47,4.2-44.19,1.2-11.86,3.38-23.61,4.5-35.46,1.29-13.66-1.09-27.18.73-40.84a557.68,557.68,0,0,0,4.75-59.18l-1.1,1.45c-.56.08.52,1.32.92,2.31a39.11,39.11,0,0,1,1.76,6.64,219.65,219.65,0,0,1,3.17,23.67c2.35,25,3.21,50.11,3.67,75.18,1,55.24.24,111-6.54,165.91-1.37,11.06-2.65,22.14-3.35,33.26-.39,6.24-2.63,17.64,2.73,22.42a12.86,12.86,0,0,0,8.59,3.2c5.4.28,10.8.57,16.2.91,9.91.63,19.82,1.37,29.72,2.09,18.71,1.35,37.45,2.59,56.22,2.44,20.51-.17,40.95-2.4,61.43-3.29,21.65-.94,43.33-1.45,65-2.83,9-.58,18.09-1.19,27.09-2.11,5.75-.59,12-1.42,17-4.72s6.29-8,5-13.55c-.89-3.78-2.62-7.32-3.16-11.18-.76-5.49-.92-11.14-1.34-16.67a1615.82,1615.82,0,0,1,1.39-259.44q1.39-16.17,3.11-32.3l-2.95.4c6.19,24.29,9,49.22,11.68,74.09,2.45,22.61,4.12,45.29,5.42,68,2.35,41.15,4.14,82.27,10.36,123.07,2.38,15.61,6,30.91,7.13,46.67.84,11.87,1.18,24,3.23,35.78.73,4.18,3.14,7.69,7.45,8.89,9.69,2.7,19.73-1,29.45,2.49,4.37,1.57,14.76,10.2,18.81,4.36,2-2.87,2.82-7.33,3.66-10.67A118,118,0,0,0,478.9,582c2.84-22.54,2.11-45.67,2.11-68.34,0-26.2-.44-52.4-1.17-78.6-1.45-52-4-104-6.61-156-1.24-24.88-2.54-49.78-5.32-74.54a556.39,556.39,0,0,0-12.24-67.6c-3.62-15.13-7.57-32.26-19.26-43.43-6.36-6.08-14.12-8.3-22.26-11-10.43-3.5-20.74-7.31-31.22-10.66-10.9-3.48-22.2-5.48-33-9.13s-20.81-8.6-31-13.49c-3.73-1.8-8.79-3.18-12.15-5.6-2.36-1.69-4-6.31-5.1-8.91-3.4-7.8-5.47-16.31-10.06-23.56C287.7,5,282.74,2,275.48,1.16c-8.06-.94-16.35,2.14-24.42,2.7C234.54,5,217.79,3.69,201.42,1.41,198.6,1,195.78.6,193,.09c-1.89-.34-2.7,2.55-.8,2.89a281.93,281.93,0,0,0,28.26,3.48,224,224,0,0,0,25.82.66c8-.3,15.47-1.89,23.31-3C290.49,1,293.29,24.45,300.12,38.45c1.09,2.23,2.32,5.28,4.17,7,2.11,2,5.65,2.76,8.21,4,9.49,4.51,18.86,9.29,28.61,13.2,9.92,4,20.14,6.08,30.4,8.9s20.43,6.42,30.54,9.94c9.06,3.16,19.82,5.17,27.83,10.6,7,4.72,11.65,11.92,15,19.52,3.46,7.95,5.59,16.43,7.61,24.84,2.39,9.9,4.81,19.79,6.73,29.8,4.6,24,7.07,48.3,8.76,72.64,3.4,49.06,5.3,98.29,7.23,147.43,2,50,3.23,100.13,2.71,150.22-.21,20.25.58,41.72-5.12,61.36-.44,1.52-1.39,6.21-2.61,7.17-1.78,1.41-4.78-.69-6.35-1.46-4.65-2.29-9-4.7-14.2-5.67a54.48,54.48,0,0,0-12.56-.49c-5.13.22-12.22,1.22-15.61-3.51-2.2-3.06-2.05-7.61-2.43-11.3-.65-6.39-1.13-12.79-1.6-19.2-.4-5.42-.75-10.83-1.17-16.25-.48-6.1-1.93-12-3-18-15.36-83.58-11.75-169.1-24.38-253.07a342.44,342.44,0,0,0-6.7-33.64c-.44-1.75-2.78-1.19-2.95.4a1621.42,1621.42,0,0,0-6.77,256.4q.86,16.21,2,32.4c.64,8.7.48,17.91,3.18,26.26,1.24,3.83,3.34,8.42,1.21,12.28-1.89,3.42-6.15,5-9.69,6C362.29,578,355,578.09,348,578.69c-21.3,1.81-42.67,2.5-64,3.29-21.19.79-42.3,2.58-63.47,3.55-37.94,1.74-76.07-2.6-113.9-5-8-.5-10.35-2.87-10.61-9.85a142.4,142.4,0,0,1,.52-15.51c.78-10.72,2-21.4,3.35-32.06,6.76-54.38,7.37-109.76,6.36-164.48-.46-24.78-1.31-49.61-3.59-74.29-.72-7.75-1.53-15.53-2.94-23.19-.66-3.6-1.2-9.18-3.85-12A3.1,3.1,0,0,0,92.85,248a1.51,1.51,0,0,0-1.1,1.45,501.12,501.12,0,0,1-4.3,55.89c-.62,4.47-1.25,8.95-1.43,13.46-.31,7.69.79,15.35.66,23.05-.17,10.06-2.27,19.93-3.51,29.88-1.86,14.94-3.08,30-4.47,45C76,446.11,73.44,475.57,70,504.92c-4.06,34.5-9.48,68.82-17.37,102.66l1.45-1.1c-16.17.12-32.68,3.19-48.59-1l1.1,1.45q0-87.7-1.78-175.39C4.08,395.56,3,359.6,3,323.64c0-29.39,1.05-58.74,3.54-88C8,218.42,9.88,201.26,12,184.13c1.38-11.24,1.82-23.49,5.56-34.21,2.8-8,7.12-15.37,10.57-23.09,2.9-6.48,6.17-12.54,10.88-17.91C59,86,91.16,82.21,117.9,71.26c14.58-6,28.36-13.91,43.29-18.8,14-4.58,12.1-21.4,18.41-32.28,3.77-6.51,9-12,14-17.58C194.92,1.17,192.81-1,191.51.48Z"/></g></g></svg>