<svg xmlns="http://www.w3.org/2000/svg" viewBox="0 0 599.58 586.61"><defs><style>.cls-1{fill:#fafbfc;}</style></defs><title>jersey</title><g id="Layer_2" data-name="Layer 2"><g id="jersey"><path class="cls-1" d="M238.65,1.51c-21.56,12-59.37,26.63-69.8,31-9.73,4.07-60.57,12-66.73,20-35.6,46.24-73.91,107-100.6,152-2.09,3.53,41.06,26,94.44,50,0,0,44.14-37,38-69,17.41,9.34,8,174.65,10.27,285,1,49,.57,87.66-5.13,96,0,0,22.58,18,69.8,17,68.62-1.45,135.5,5,207.14-1,13.66-1.14,30.41-1.74,42.31-9,6.19-3.78-2.27-7-2.05-17,3.08-142-2.15-361.89,6.16-372,0,37,30.8,49,41.06,70,51.33-29,99.06-46.54,94.44-52-14.37-17-40.58-67.56-57.49-91-26.69-37-25.66-49-42.09-57-37.51-18.27-41.59-8.92-79-25-12.06-5.18-49.29-25-59.54-28C335.15,1.51,261.24,4.51,238.65,1.51Z"/><path d="M237.9.22c-14.13,7.8-29,14.19-43.92,20.4-9.51,4-19.16,8.74-29.08,11.64C154.12,35.41,143,37.37,132.06,40c-9.31,2.24-21,4-29,9.68-4.86,3.41-8.22,9.9-11.7,14.59Q83,75.65,74.85,87.26q-17.21,24.56-33.4,49.82Q26.39,160.42,12,184.18q-3.23,5.31-6.42,10.64C4.08,197.28.36,201.4,0,204.24c-.22,1.9,1.21,3.1,2.55,4.23,9.21,7.81,21.37,13.06,32,18.5,19.92,10.18,40.21,19.65,60.61,28.83a1.59,1.59,0,0,0,1.82-.23,148.07,148.07,0,0,0,22.24-23.73c10-13.17,19.11-29.63,16.13-46.73l-2.2,1.69c3.31,1.91,4.26,7.7,5,11a164,164,0,0,1,3.12,23.79c1.86,24.12,1.91,48.39,1.92,72.57,0,60.09-1.62,120.17-.45,180.26.38,19.75.7,39.55-.12,59.3A200.19,200.19,0,0,1,141.05,554c-.56,3.87-1.1,8.36-3.27,11.72a1.51,1.51,0,0,0,.23,1.82c9.73,7.68,23.08,11.7,35,14.24,14.73,3.15,29.49,3.24,44.48,3.06,17.38-.21,34.76,0,52.14.4,35.69.76,71.39,2,107.08.92q25.46-.76,50.84-3.12a105.06,105.06,0,0,0,20.76-3.58c3.93-1.19,11.4-3.11,13.36-7.2,1.49-3.1-1.3-6.3-2.46-9-2.47-5.79-1.27-13-1.16-19.18q.34-18.86.51-37.72.39-40.44.36-80.88c0-51-.22-102,.23-152.94.16-18.34.38-36.69,1.11-55,.39-9.71,0-20.52,2.61-30a6.16,6.16,0,0,1,.9-2.28l-2.8-.76c.18,15.36,5.85,28.69,15.66,40.36,8.48,10.08,19.58,18.46,25.61,30.4a1.52,1.52,0,0,0,2.05.54c23.59-13.28,48-24.82,72.26-36.82,6.55-3.24,13.55-6.34,19.44-10.73,2.39-1.79,4.74-3.82,3-6.8-1.88-3.3-4.87-6.32-7-9.5-2.68-4-5.24-8-7.76-12-5.87-9.47-11.5-19.08-17.17-28.68S555.88,132.31,550,123c-6.09-9.57-12.94-18.61-19.07-28.15-5-7.81-9.51-15.92-14.28-23.87-2.92-4.86-6.08-9.7-10.5-13.34-6.87-5.65-16.06-8.9-24.32-11.93-8.49-3.12-17.21-5-26.07-6.65-19.14-3.62-36.48-11-53.83-19.59-8.81-4.37-17.59-8.8-26.48-13C370.11,4,363.73,0,357.68,0c-20.4.11-40.81.85-61.21,1.15-19.11.28-38.8,1.28-57.82-1.15-1.91-.24-1.89,2.76,0,3,15.6,2,31.68,1.42,47.36,1.28,19.1-.17,38.19-.68,57.29-1.06,5.91-.12,13.34-1.4,18.95.72,7.69,2.92,15.09,6.74,22.47,10.36,16.34,8,32.42,16.91,49.78,22.59s35.25,6.93,52.11,13.91C494,53.89,501.91,57,507.4,63c4.27,4.72,7.29,10.56,10.45,16,10.36,17.95,22.8,34.44,33.65,52.06,11.13,18.07,21.43,36.65,32.81,54.57,2.58,4.07,5.21,8.1,8,12,1.06,1.47,4.51,4.89,4.15,6.08-.55,1.76-4.59,3.61-6,4.48-3.62,2.16-7.39,4.09-11.15,6-25.58,12.93-51.57,24.9-76.56,39l2.05.54c-5.47-10.84-15.1-18.77-23.13-27.64-10.76-11.89-17.54-25.31-17.73-41.61a1.51,1.51,0,0,0-2.8-.76c-1.32,1.71-1.55,4.44-1.87,6.48-.71,4.55-1.05,9.17-1.35,13.77-1,15.25-1.28,30.56-1.52,45.83-.76,47-.52,94-.5,141.06,0,51.95,0,103.9-.92,155.84-.1,5.42-.94,11.32,1,16.52.66,1.82,1.84,3.42,2.5,5.21,1.39,3.8-3,5.09-6.06,6.37-14.23,6-31.07,5.88-46.26,6.92-34.71,2.38-69.52,2-104.29,1.25-17.05-.38-34.1-.85-51.16-1.08s-33.88.55-50.78,0c-19.53-.6-40.79-4.35-57.56-15-.54-.35-2.35-1.61-2.18-1.48l.23,1.82c4.31-6.69,4.27-16.9,4.81-24.52,1.17-16.7,1.06-33.49.89-50.22-.34-32.54-.86-65.05-.61-97.6.43-56.84,3.06-114.19-1-170.95-.64-9.09-1.4-18.32-3.46-27.22-1-4.17-2.27-10.21-6.33-12.55a1.52,1.52,0,0,0-2.2,1.69c3,17.18-7.45,34-17.72,46.84a146.89,146.89,0,0,1-19.88,20.7l1.82-.23c-17.64-7.94-35.18-16.11-52.49-24.74C32.64,222.7,20.92,216.89,10,210c-2-1.29-5.73-3-6.94-5.24-.2-.36-.17-.4-.19.53,0-.45.89-1.49,1.12-1.89l3-5.11q3.37-5.63,6.77-11.23,13.68-22.56,27.92-44.77,15.25-23.77,31.26-47,7.89-11.41,16-22.63,3.72-5.11,7.5-10.17c2.33-3.12,4.55-7,7.45-9.63s7.17-3.75,10.71-4.92c5.43-1.8,11-3.22,16.54-4.58,10.8-2.64,21.75-4.73,32.49-7.59,10.44-2.79,20.53-7.78,30.48-11.93,15.33-6.39,30.72-12.93,45.28-21C241.1,1.88,239.59-.72,237.9.22Z"/></g></g></svg>