<svg xmlns="http://www.w3.org/2000/svg" viewBox="0 0 455.61 47.14"><defs><style>.cls-1{fill:red;}</style></defs><title>kitbuilder</title><g id="Layer_2" data-name="Layer 2"><g id="Layer_1-2" data-name="Layer 1"><rect class="cls-1" y="23.11" width="142" height="6"/><polygon class="cls-1" points="360.52 29.38 436.65 29.38 436.65 38.11 455.61 26.61 436.65 15.11 436.65 23.84 360.52 23.84 360.52 29.38"/><path d="M41.13,18.56,60.61,0H70.7l-22.63,21L70.83,46.47H60.71l-18-20.66-1.56,1.44V46.47H33.57V0h7.55Z"/><path d="M85.12,0V46.47H77.57V0Z"/><path d="M111,6.61V46.47h-7.55V6.61H91.9V0h30.54V6.61Z"/><path d="M141.41,46.3V0h7a30.4,30.4,0,0,1,7.4.72,11.12,11.12,0,0,1,4.7,2.43,12.61,12.61,0,0,1,3.09,4.41,13.35,13.35,0,0,1,1.17,5.4,10.94,10.94,0,0,1-3.81,8.43,11.18,11.18,0,0,1,5.81,4.41A12.44,12.44,0,0,1,168.89,33a12.34,12.34,0,0,1-3.84,9.18,12.59,12.59,0,0,1-5.18,3.21,30.12,30.12,0,0,1-7.88.87Zm7-26.42h2.19q3.9,0,5.71-1.72a6.69,6.69,0,0,0,1.81-5.08,6.38,6.38,0,0,0-1.86-5,7.74,7.74,0,0,0-5.39-1.69h-2.46Zm0,19.85h4.31q4.73,0,7-1.86a6.43,6.43,0,0,0,2.34-5.1,6.53,6.53,0,0,0-2.25-5q-2.19-2-7.82-2h-3.54Z"/><path d="M184.68,0V27.89q0,6,1.95,8.73a10.41,10.41,0,0,0,16.39,0Q205,33.95,205,27.89V0h7V29.81a17.13,17.13,0,1,1-34.25,0V0Z"/><path d="M230,0V46.3h-7V0Z"/><path d="M248.12,0V39.74h13.6V46.3H241.13V0Z"/><path d="M268.34,46.3V0H278a35.31,35.31,0,0,1,11,1.38A20.64,20.64,0,0,1,297,6q7.16,6.54,7.16,17.18t-7.46,17.27A21.78,21.78,0,0,1,288.81,45a35.71,35.71,0,0,1-10.88,1.29Zm7-6.57h3.15a26.22,26.22,0,0,0,7.82-1,15.89,15.89,0,0,0,10.79-15.59A16.1,16.1,0,0,0,292,10.8q-4.58-4.23-13.51-4.23h-3.15Z"/><path d="M338.43,6.57H319.88V17.69h18v6.57h-18V39.74h18.55V46.3H312.9V0h25.53Z"/><path d="M363.27,26.57,377.59,46.3h-8.54l-13.21-19h-1.26v19h-7V0h8.18Q364.95,0,369,3.45a12.68,12.68,0,0,1,4.5,10.14A13.16,13.16,0,0,1,370.7,22,12.56,12.56,0,0,1,363.27,26.57Zm-8.69-5.31h2.22q9.92,0,9.92-7.59,0-7.11-9.65-7.11h-2.49Z"/></g></g></svg>