<svg xmlns="http://www.w3.org/2000/svg" viewBox="0 0 218.1 130.55"><defs><style>.cls-1{fill:#fcfcfc;stroke:#000;stroke-miterlimit:10;stroke-width:2px;}.cls-2{fill:#231f20;}</style></defs><title>logo_google</title><g id="Layer_2" data-name="Layer 2"><g id="Layer_1-2" data-name="Layer 1"><path class="cls-1" d="M170.7,1c-2.78,1.39-7.66,3.07-9,3.58S153.88,6,153.08,6.91a189.22,189.22,0,0,0-13,17.54c-.27.41,5.3,3,12.18,5.77,0,0,5.7-4.27,4.9-8,2.25,1.08,1,20.16,1.32,32.9.13,5.66.07,10.12-.66,11.08,0,0,2.91,2.08,9,2,8.85-.17,17.48.58,26.73-.12,1.76-.13,3.92-.2,5.46-1,.8-.44-.29-.81-.26-2,.4-16.39-.28-41.77.79-42.94,0,4.27,4,5.66,5.3,8.08,6.62-3.35,12.78-5.37,12.18-6-1.85-2-5.24-7.8-7.42-10.5-3.44-4.27-3.31-5.66-5.43-6.58-4.84-2.11-5.37-1-10.2-2.89-1.56-.6-6.36-2.89-7.68-3.23C183.15,1,173.61,1.37,170.7,1Z"/><polygon class="cls-2" points="23.19 40.38 127.45 40.38 127.45 50.68 150.09 37.11 127.45 23.55 127.45 33.84 23.19 33.84 23.19 40.38"/><path d="M13.8,32.05,41.43,4.55h14.3L23.64,35.76,55.91,73.48H41.57L16,42.81,13.8,45V73.48H3.09V4.55H13.8Z"/><path d="M76.18,4.55V73.48H65.47V4.55Z"/><path d="M112.82,14.33V73.48H102.11V14.33H85.79V4.55h43.3v9.78Z"/><path d="M16.61,85.87v44.68H10V85.87H0V78.49H26.61v7.39Z"/><path d="M47.26,108.36l13.5,22.19H52.71L40.25,109.24H39.07v21.31H32.48V78.49H40.2q8.64,0,12.49,3.88,4.24,4.32,4.24,11.4a16.73,16.73,0,0,1-2.66,9.51A11.72,11.72,0,0,1,47.26,108.36Zm-8.19-6h2.09q9.35,0,9.35-8.53,0-8-9.1-8H39.07Z"/><path d="M92.93,117.91H74.26L69.4,130.55H62.31L83.89,75.21l20.82,55.34h-7.2Zm-2.68-7.39-6.47-17.7L77,110.52Z"/><path d="M110.16,130.55V78.49h9.15A28.27,28.27,0,0,1,129.71,80a19,19,0,0,1,7.43,5.16q6.75,7.35,6.75,19.32t-7,19.42a20.07,20.07,0,0,1-7.4,5.16q-3.62,1.45-10.25,1.45Zm6.58-7.39h3a21,21,0,0,0,7.37-1.11,14.67,14.67,0,0,0,5.31-3.74q4.86-5.29,4.86-13.79t-4.8-13.89q-4.32-4.75-12.74-4.75h-3Z"/><path d="M176.24,85.87H158.75V98.38h17v7.39h-17v17.4h17.49v7.39H152.17V78.49h24.07Z"/><path d="M199.65,108.36l13.5,22.19H205.1l-12.46-21.31h-1.19v21.31h-6.58V78.49h7.71q8.64,0,12.49,3.88,4.24,4.32,4.24,11.4a16.73,16.73,0,0,1-2.66,9.51A11.72,11.72,0,0,1,199.65,108.36Zm-8.19-6h2.09q9.35,0,9.35-8.53,0-8-9.1-8h-2.34Z"/></g></g></svg>