<svg xmlns="http://www.w3.org/2000/svg" viewBox="0 0 454 154.03"><defs><style>.cls-1{fill:none;stroke:#020202;stroke-width:13px;}.cls-1,.cls-2{stroke-miterlimit:10;}.cls-2{fill:#fcfcfc;stroke:#000;stroke-width:2px;}.cls-3{fill:#020202;}.cls-4{fill:#fff;}</style></defs><title>logo</title><g id="Layer_2" data-name="Layer 2"><g id="Layer_1-2" data-name="Layer 1"><path d="M11.62,83.18,31.84,62.45H42.3L18.82,86l23.61,28.42H31.94L13.24,91.28,11.62,92.9v21.49H3.79V62.45h7.84Z"/><path d="M57.27,62.45v51.94H49.43V62.45Z"/><path d="M84.08,69.82v44.57H76.24V69.82H64.3V62.45H96v7.37Z"/><path d="M218.95,69.82v44.57h-7.84V69.82H199.17V62.45h31.69v7.37Z"/><path d="M255.44,92.26l16.08,22.13h-9.59L247.1,93.13h-1.41v21.26h-7.84V62.45H247q10.29,0,14.87,3.87a14.21,14.21,0,0,1,5,11.37,14.76,14.76,0,0,1-3.16,9.49A14.09,14.09,0,0,1,255.44,92.26Zm-9.76-6h2.49q11.13,0,11.13-8.51,0-8-10.83-8h-2.79Z"/><path d="M309.84,101.78H287.6l-5.79,12.61h-8.44l25.7-55.2,24.79,55.2h-8.58Zm-3.2-7.37-7.7-17.66-8.07,17.66Z"/><path d="M330.36,114.39V62.45h10.9A39.66,39.66,0,0,1,353.63,64a23.17,23.17,0,0,1,8.85,5.15q8,7.33,8,19.27t-8.38,19.38a24.46,24.46,0,0,1-8.81,5.15q-4.31,1.45-12.21,1.45Zm7.84-7.37h3.53a29.47,29.47,0,0,0,8.78-1.11,17.83,17.83,0,0,0,12.11-17.49,18,18,0,0,0-5.72-13.86q-5.15-4.74-15.17-4.74h-3.53Z"/><path d="M409,69.82H388.21V82.3h20.22v7.37H388.21V107H409v7.37H380.38V62.45H409Z"/><path d="M436.92,92.26,453,114.39h-9.59L428.58,93.13h-1.41v21.26h-7.84V62.45h9.18q10.29,0,14.87,3.87a14.21,14.21,0,0,1,5,11.37,14.76,14.76,0,0,1-3.16,9.49A14.09,14.09,0,0,1,436.92,92.26Zm-9.76-6h2.49q11.13,0,11.13-8.51,0-8-10.83-8h-2.79Z"/><polygon points="178.66 72.88 178.66 108.02 212.78 88.5 178.66 72.88"/><line class="cls-1" x1="187.87" y1="90.18" x2="96.05" y2="90.18"/><path class="cls-2" d="M132.84,1c-5.17,2.86-14.22,6.34-16.73,7.38-2.33,1-14.51,2.86-16,4.76-8.53,11-17.71,25.48-24.11,36.2-.5.84,9.84,6.19,22.63,11.91,0,0,10.58-8.81,9.1-16.43,4.17,2.22,1.91,41.6,2.46,67.88.25,11.67.14,20.88-1.23,22.86,0,0,5.41,4.29,16.73,4,16.44-.35,32.47,1.19,49.63-.24,3.27-.27,7.29-.41,10.14-2.14,1.48-.9-.54-1.66-.49-4,.74-33.82-.51-86.19,1.48-88.6,0,8.81,7.38,11.67,9.84,16.67,12.3-6.91,23.73-11.09,22.63-12.39-3.44-4-9.72-16.09-13.77-21.67-6.4-8.81-6.15-11.67-10.08-13.58-9-4.35-10-2.12-18.94-6-2.89-1.23-11.81-6-14.27-6.67C156,1,138.25,1.75,132.84,1Z"/><rect class="cls-3" y="124.03" width="454" height="30"/><path class="cls-4" d="M17.56,130.18v3.34a7.45,7.45,0,0,0-4.9-2,6.15,6.15,0,0,0-4.7,2.07,7.11,7.11,0,0,0-1.92,5,6.93,6.93,0,0,0,1.92,5,6.26,6.26,0,0,0,4.72,2,5.64,5.64,0,0,0,2.45-.48,7.06,7.06,0,0,0,1.17-.65,13.8,13.8,0,0,0,1.27-1v3.4a9.64,9.64,0,0,1-4.93,1.37A9,9,0,0,1,6,145.42a9.43,9.43,0,0,1-2.73-6.81,9.79,9.79,0,0,1,2.29-6.37,9,9,0,0,1,7.29-3.43A9,9,0,0,1,17.56,130.18Z"/><path class="cls-4" d="M20,138.44a9.3,9.3,0,0,1,2.8-6.78,9.08,9.08,0,0,1,6.71-2.83,8.92,8.92,0,0,1,6.64,2.86,9.5,9.5,0,0,1,2.78,6.87,9.34,9.34,0,0,1-2.79,6.84,9.35,9.35,0,0,1-13.07.31A9.32,9.32,0,0,1,20,138.44Zm2.76,0a6.87,6.87,0,0,0,2,5.1,6.53,6.53,0,0,0,9.44,0,7.43,7.43,0,0,0,0-10,6.6,6.6,0,0,0-9.54,0A6.86,6.86,0,0,0,22.74,138.48Z"/><path class="cls-4" d="M42.36,147.88v-20l13.21,14.27v-13H58.3V149L45.09,134.78v13.09Z"/><path class="cls-4" d="M62.64,147.88v-20l13.21,14.27v-13h2.73V149L65.37,134.78v13.09Z"/><path class="cls-4" d="M92.92,131.83H85.66v4.49h7.05V139H85.66v6.25h7.26v2.65h-10v-18.7h10Z"/><path class="cls-4" d="M109.89,130.18v3.34a7.45,7.45,0,0,0-4.9-2,6.15,6.15,0,0,0-4.7,2.07,7.11,7.11,0,0,0-1.92,5,6.93,6.93,0,0,0,1.92,5,6.26,6.26,0,0,0,4.72,2,5.64,5.64,0,0,0,2.45-.48,7.06,7.06,0,0,0,1.17-.65,13.8,13.8,0,0,0,1.27-1v3.4a9.64,9.64,0,0,1-4.93,1.37,9,9,0,0,1-6.63-2.8,9.43,9.43,0,0,1-2.73-6.81,9.79,9.79,0,0,1,2.29-6.37,9.21,9.21,0,0,1,12-2.06Z"/><path class="cls-4" d="M118.34,131.83v16h-2.73v-16h-4.16v-2.65h11.05v2.65Z"/><path class="cls-4" d="M127.67,129.18v18.7h-2.73v-18.7Z"/><path class="cls-4" d="M132,147.88v-20l13.21,14.27v-13H148V149l-13.21-14.23v13.09Z"/><path class="cls-4" d="M161.8,138.14h7.48v.62a13.16,13.16,0,0,1-.48,3.73,8,8,0,0,1-1.58,2.81,8.09,8.09,0,0,1-6.42,2.93,8.69,8.69,0,0,1-6.51-2.83,10,10,0,0,1,0-13.73,9.29,9.29,0,0,1,10.68-2,11.52,11.52,0,0,1,3.46,2.91l-1.95,1.93a6.56,6.56,0,0,0-5.43-3.06,6.39,6.39,0,0,0-4.82,2,7,7,0,0,0-1.95,5,6.73,6.73,0,0,0,2.17,5.15,6.37,6.37,0,0,0,4.4,1.88,5.36,5.36,0,0,0,3.63-1.4,5,5,0,0,0,1.79-3.39H161.8Z"/><path class="cls-4" d="M182.87,140.28v7.59h-2.73v-18.7h3.1a13.56,13.56,0,0,1,3.44.33,4.58,4.58,0,0,1,2.06,1.24,5.41,5.41,0,0,1,1.56,4,5.21,5.21,0,0,1-1.67,4.07,6.46,6.46,0,0,1-4.49,1.5Zm0-2.62h1q3.77,0,3.77-3t-3.88-2.89h-.9Z"/><path class="cls-4" d="M195.85,129.18v16h5.33v2.65h-8.06v-18.7Z"/><path class="cls-4" d="M215.42,143.33h-7.75l-2,4.54H202.7l9-19.87,8.65,19.87h-3Zm-1.11-2.65-2.69-6.36-2.82,6.36Z"/><path class="cls-4" d="M224.65,139.8l-5.91-10.62h3.14l4.14,7.47,4.15-7.47h3.14l-5.94,10.62v8.08h-2.73Z"/><path class="cls-4" d="M245.4,131.83h-7.26v4.49h7.05V139h-7.05v6.25h7.26v2.65h-10v-18.7h10Z"/><path class="cls-4" d="M255.13,139.91l5.61,8h-3.34l-5.17-7.65h-.49v7.65H249v-18.7h3.2q3.59,0,5.19,1.39a5.19,5.19,0,0,1,1.76,4.09,5.42,5.42,0,0,1-1.1,3.42A4.89,4.89,0,0,1,255.13,139.91Zm-3.4-2.14h.87q3.88,0,3.88-3.06,0-2.87-3.78-2.87h-1Z"/><path class="cls-4" d="M273.7,132l-2.22,1.36a3.91,3.91,0,0,0-1.18-1.45,2.7,2.7,0,0,0-1.51-.39,2.74,2.74,0,0,0-1.89.67,2.09,2.09,0,0,0-.75,1.65q0,1.37,2,2.2l1.81.76a7.72,7.72,0,0,1,3.23,2.25,5.17,5.17,0,0,1,1,3.25,5.81,5.81,0,0,1-1.67,4.26,5.62,5.62,0,0,1-4.16,1.7,5.47,5.47,0,0,1-3.9-1.44,6.72,6.72,0,0,1-1.89-4.06l2.77-.63a5,5,0,0,0,.66,2.28,3.06,3.06,0,0,0,4.59.33,3.11,3.11,0,0,0,.84-2.24,3.24,3.24,0,0,0-.15-1,2.55,2.55,0,0,0-.46-.84,3.69,3.69,0,0,0-.8-.71,7.57,7.57,0,0,0-1.17-.64l-1.75-.75q-3.72-1.62-3.72-4.75a4.57,4.57,0,0,1,1.56-3.52,5.53,5.53,0,0,1,3.88-1.43A5.41,5.41,0,0,1,273.7,132Z"/><path class="cls-4" d="M289.88,131.83v16h-2.73v-16H283v-2.65H294v2.65Z"/><path class="cls-4" d="M295,138.44a9.3,9.3,0,0,1,2.8-6.78,9.08,9.08,0,0,1,6.71-2.83,8.92,8.92,0,0,1,6.64,2.86,9.5,9.5,0,0,1,2.78,6.87,9.34,9.34,0,0,1-2.79,6.84,9.35,9.35,0,0,1-13.07.31A9.32,9.32,0,0,1,295,138.44Zm2.76,0a6.87,6.87,0,0,0,2,5.1,6.53,6.53,0,0,0,9.44,0,7.43,7.43,0,0,0,0-10,6.6,6.6,0,0,0-9.54,0A6.86,6.86,0,0,0,297.75,138.48Z"/><path class="cls-4" d="M327.51,129.18v11.26a6.36,6.36,0,0,0,.76,3.52,4,4,0,0,0,6.42,0,6.24,6.24,0,0,0,.76-3.52V129.18h2.73v12a6.86,6.86,0,0,1-1.78,4.87,6.75,6.75,0,0,1-9.84,0,6.86,6.86,0,0,1-1.78-4.87v-12Z"/><path class="cls-4" d="M342.53,147.88v-20l13.21,14.27v-13h2.73V149l-13.21-14.23v13.09Z"/><path class="cls-4" d="M365.54,129.18v18.7h-2.73v-18.7Z"/><path class="cls-4" d="M378.94,131.83h-6.31v4.49h6.09V139h-6.09v8.9h-2.73v-18.7h9Z"/><path class="cls-4" d="M381.23,138.44a9.3,9.3,0,0,1,2.8-6.78,9.08,9.08,0,0,1,6.71-2.83,8.92,8.92,0,0,1,6.64,2.86,9.5,9.5,0,0,1,2.78,6.87,9.34,9.34,0,0,1-2.79,6.84,9.35,9.35,0,0,1-13.07.31A9.32,9.32,0,0,1,381.23,138.44Zm2.76,0a6.87,6.87,0,0,0,2,5.1,6.53,6.53,0,0,0,9.44,0,7.43,7.43,0,0,0,0-10,6.6,6.6,0,0,0-9.54,0A6.86,6.86,0,0,0,384,138.48Z"/><path class="cls-4" d="M409.73,139.91l5.61,8H412l-5.17-7.65h-.49v7.65H403.6v-18.7h3.2q3.59,0,5.19,1.39a5.19,5.19,0,0,1,1.76,4.09,5.42,5.42,0,0,1-1.1,3.42A4.89,4.89,0,0,1,409.73,139.91Zm-3.4-2.14h.87q3.88,0,3.88-3.06,0-2.87-3.78-2.87h-1Z"/><path class="cls-4" d="M417.43,147.88l3.81-20.1,6.22,14.53,6.44-14.53,3.43,20.1h-2.8l-1.75-11.29-5.36,12.15-5.21-12.16-1.95,11.3Z"/><path class="cls-4" d="M451.4,132l-2.22,1.36a3.91,3.91,0,0,0-1.18-1.45,2.7,2.7,0,0,0-1.51-.39,2.74,2.74,0,0,0-1.89.67,2.09,2.09,0,0,0-.75,1.65q0,1.37,2,2.2l1.81.76a7.72,7.72,0,0,1,3.23,2.25,5.17,5.17,0,0,1,1,3.25,5.81,5.81,0,0,1-1.67,4.26,5.62,5.62,0,0,1-4.16,1.7,5.47,5.47,0,0,1-3.9-1.44,6.72,6.72,0,0,1-1.89-4.06l2.77-.63a5,5,0,0,0,.66,2.28,3.06,3.06,0,0,0,4.59.33,3.11,3.11,0,0,0,.84-2.24,3.24,3.24,0,0,0-.15-1,2.55,2.55,0,0,0-.46-.84,3.69,3.69,0,0,0-.8-.71,7.57,7.57,0,0,0-1.17-.64l-1.75-.75q-3.72-1.62-3.72-4.75a4.57,4.57,0,0,1,1.56-3.52,5.53,5.53,0,0,1,3.88-1.43A5.41,5.41,0,0,1,451.4,132Z"/></g></g></svg>