<svg xmlns="http://www.w3.org/2000/svg" viewBox="0 0 338.97 513.49"><defs><style>.cls-1{fill:#f9f9f9;}.cls-2{fill:#020202;}</style></defs><title>pants</title><g id="Layer_2" data-name="Layer 2"><g id="pants"><path class="cls-1" d="M56.51,3.15a664.88,664.88,0,0,0-43,210.25C11,278.93,18.34,344.81,10.09,410c-4,31.72-3.66,60.91-8.62,93.12,13.23-2.93,18.71,2.18,27.28,1.46,26.45-2.2,29.63,2,46.29,4.39,3.21-9.57,9.76-18.58,11.57-32.22,3.31-24.9,8.35-56.59,15.64-80.35,6.68-21.77,10.25-44.23,17.65-65.81,4.67-13.6,10.23-27,14.14-40.74,3-10.54,6.77-16.92,8.78-27.64,4.09-21.91,8.27-28.56,10.51-70.09,6.85,45.2,32,101.49,50.66,153.57,6.58,18.38,12.14,39.6,18.78,58,12.26,33.93,11.8,46.75,28.34,84.09.46,1,9,21.92,9.92,22.7,4,3.51,9.61.16,10.75,0,22.68-3.24,29.39-4.08,52.07-7.32,2-.29,12.13-3.61,13.23-5.13.86-1.2-2.32-18.36-2.48-19.77-16.84-151.31-39.68-347.81-75.22-433.48-.9-2.17-5-13.91-9.09-21.23-3.14-5.56-6.61-.73-8.27-5.86s-9.09-16.11-9.09-16.11S206.85,9.7,201.5,10.29c-43.57,4.82-64.47,2.2-110.66.06C82,9.95,68,6.9,56.51,3.15Z"/><path class="cls-2" d="M55.07,2.75A671.47,671.47,0,0,0,13.36,189.92c-5,66.76,2.77,133.75-2.73,200.48-1.53,18.58-4,37-5.3,55.65C4,465,2.86,483.91,0,502.69a1.52,1.52,0,0,0,1.85,1.85c7.5-1.5,13.67.07,21,1.21,6.88,1.07,14-.43,21-.3,10.56.2,20.44,3.37,30.8,4.94a1.55,1.55,0,0,0,1.85-1c3.42-9.74,9-18.52,11-28.76,2.28-11.41,3.29-23.14,5.23-34.63s4.19-23.15,7-34.57c2.85-11.65,6.56-23.06,9.44-34.71,3.17-12.86,6-25.81,9.87-38.49s8.92-24.78,13.13-37.25c1.92-5.7,3.44-11.54,5.43-17.22,1.7-4.85,3.7-9.6,5.12-14.54,2.07-7.18,3.19-14.7,4.86-22,4.18-18.2,6.24-36.45,7.27-55.1l-2.95.4c5.77,37.1,20.06,72.62,33.38,107.52,7.1,18.58,14.48,37.1,20.67,56,6,18.35,11.64,36.78,17.86,55.06,4.64,13.66,8.13,27.65,12.39,41.43C240.36,466,245.83,479,251.27,492c2,4.78,4,9.56,6.07,14.29,1.61,3.64,2.62,6.64,7.13,7.16,2.61.3,4.78-.79,7.22-1.44,4.44-1.18,9.35-1.4,13.9-2l21-2.93c7.26-1,14.9-1.41,21.9-3.67,2.89-.93,9.1-2.15,10.15-5.51,1.11-3.56-.89-9.58-1.47-13.12-.93-5.72-1.63-11.43-2.28-17.2C331,432.32,326.95,397.12,322.63,362,314.2,293.36,305,224.71,291.53,156.9c-5.53-27.8-11.74-55.55-20.1-82.65-3.24-10.49-7-20.7-11-30.92-2.37-6.11-4.58-12.3-7.56-18.16-1.19-2.35-2.42-4.91-5.05-5.88-1.94-.72-3.28-.72-4.63-2.81-.76-1.18-1.2-2.72-1.85-4A127,127,0,0,0,234.21.75a1.54,1.54,0,0,0-1.69-.69c-6.3,2-12.63,3.9-19,5.71-10.28,2.93-20.39,4-31.07,4.78-25.6,1.82-51.11.38-76.7-1-8.1-.42-16.25-.5-24.27-1.81A170.61,170.61,0,0,1,56.91,1.71c-1.84-.59-2.63,2.3-.8,2.89,26.89,8.65,55.25,8.67,83.24,9.62,12.78.44,25.57.4,38.34-.36,10.75-.64,21.65-1.12,32.08-3.93,7.9-2.13,15.73-4.52,23.53-7l-1.69-.69A127.05,127.05,0,0,1,238.74,14c1,1.93,1.58,4.7,3.07,6.32a5.48,5.48,0,0,0,2.11,1.31c2.29,1,4.11,1.49,5.7,3.78,3.8,5.47,5.6,12.81,8,19,1.81,4.62,3.67,9.21,5.34,13.89,8.54,23.89,14.72,48.63,20.2,73.38,14.23,64.3,23.54,129.69,32,195,4.46,34.42,8.55,68.89,12.49,103.38,1.84,16.08,3.27,32.25,5.44,48.29.53,3.94,1.32,7.85,1.89,11.79.21,1.42,1.41,5.49.72,6.93s-4.76,2.34-6.41,2.91c-6.68,2.32-13.76,2.84-20.73,3.82l-20.93,2.91-10.77,1.52a51.56,51.56,0,0,0-6,.92c-1.91.51-3.3,1.34-5.39,1.23-5-.26-6.4-7.45-8.11-11.46-4.93-11.59-10.05-23.14-14.29-35-4.51-12.63-7.82-25.6-11.63-38.45-5-16.91-11.23-33.44-16.42-50.3-5.57-18.1-11.72-35.9-18.41-53.61-13.16-34.81-27.61-69.45-36.85-105.58-2-8-3.77-16.07-5-24.23-.27-1.75-2.86-1.2-2.95.4-1,17.19-2.61,34.2-6.41,51-1.41,6.22-2.8,12.43-4,18.68-2.18,11-6.81,21.45-10.11,32.12-3.79,12.25-8.67,24.13-12.81,36.26s-7.19,24.85-10.2,37.44c-5.6,23.36-12.78,46.16-17.08,69.84-2.26,12.47-4.09,25-5.83,37.55-1.7,12.19-7.75,22.15-11.75,33.55l1.85-1c-10.63-1.61-20.77-4.85-31.6-5-7.61-.14-15.31,1.45-22.81-.1-6.85-1.41-13-2.1-20-.71l1.85,1.85c4.82-32,5.2-64.38,9-96.46,4-33.22,4-66.73,3.43-100.13-.56-33.67-1.7-67.36,0-101a655.75,655.75,0,0,1,12.12-96.74A677.27,677.27,0,0,1,58,3.55C58.64,1.74,55.74,1,55.07,2.75Z"/></g></g></svg>