<svg xmlns="http://www.w3.org/2000/svg" viewBox="0 0 302.44 180.6"><defs><style>.cls-1{fill:#f8f8f8;}</style></defs><title>shoes</title><g id="Layer_2" data-name="Layer 2"><g id="others"><path class="cls-1" d="M41.57,15.67c-7.68-1.06-15.3,3.54-20.15,9.92S10.58,39.9,8.37,47.73C3.88,63.61.39,80.19,2.11,96.66c1,9.79,7.85,20.09,15.63,25.54,3.89,2.72,8.81,4.21,11.46,8.26,3.5,5.36,3.44,15,9.6,15.43,5.72.37,7.39-8.22,11.77-12.13,4.94-4.42,14-.56,14.69,6.24.2,2.1-.26,4.28.32,6.29,1.09,3.82,6.32,5.43,9.19,2.83,2.23-2,2.65-5.46,4.18-8.11,4.18-7.26,14.37-6.25,22.1-3.84a204.25,204.25,0,0,1,38.31,16.38c5.21,2.89,10.6,6.33,13.18,11.91.58,1.26,1,2.66,2.11,3.5,1.78,1.42,4.52.5,5.93-1.32s1.85-4.25,2.23-6.57c5.12,2.44,12.46-1.3,16.08,3.22,2.21,2.76,1.52,7.21,3.72,10,2.32,2.92,7.54,2.1,9-1.4.71-1.76.63-4,2-5.21,1.09-1,2.67-.87,4.08-.74l19.28,1.78c-2.8,3.95.82,10.47,5.49,10.42s8.21-5.72,7-10.48l17.05-1.37c2.52-.2,5.55-.16,6.95,2.06.8,1.28.81,3,1.63,4.24,1.63,2.51,5.62,1.81,7.42-.57s2-5.63,2.13-8.67c9.69-3.35,19.25-7.79,26.82-15s9.51-17.51,9.19-28.24a15.52,15.52,0,0,0-1.36-6.44c-1.87-3.77-2.31-5.82-5.93-7.69-19.12-9.83-37.66-20.84-56.19-31.85l-13.51-8C212.05,60.2,200.11,53,192.2,41.72c-3.74-5.33-6.5-11.49-11.1-16-9.59-9.45-24.43-9.37-37.36-7-3.22.59-6.53,1.28-9.74.63s-6.37-3-6.94-6.41c-.43-2.52.6-5.24-.27-7.63-1.2-3.31-5.38-4.2-8.66-3.39-9.58,2.37-14.29,13.33-19.92,21.84C92.16,32.88,82.6,40.63,72,39.95,59.46,39.13,41.57,15.67,41.57,15.67Z"/><path d="M41.57,14.17C29.2,13.06,21.47,22.5,15.08,31.66,6.79,43.54,3.57,57.39,1.46,71.57c-1.75,11.77-2.88,25,2.35,36.08a41.52,41.52,0,0,0,10.57,13.83c4.44,3.76,11.06,5.47,14.07,10.66C31.27,137,32.29,150,41.16,147.08c3.16-1,4.94-4.27,6.56-6.91,1.52-2.48,3-5.54,6-6.51A8.27,8.27,0,0,1,62,136.19c3.58,4.07,0,10.26,4.47,14a7.31,7.31,0,0,0,9.08.28c3.83-3.06,3.29-8.83,7.54-11.66,5.57-3.71,13.49-1.45,19.3.4a196.87,196.87,0,0,1,23.26,9.09c6.84,3.18,14.4,6.47,20.24,11.31,3.25,2.69,4.28,5.92,6.58,9.16A5.14,5.14,0,0,0,155.8,171c5.63,1.09,7.71-5.38,8.44-9.58l-1.85,1a19.25,19.25,0,0,0,7.64.93c1.57,0,4-.41,5.42.31,2.28,1.14,3.3,3.67,3.84,5.93.89,3.7,2.2,7.37,6.52,7.81s6-2.26,7.6-5.61c2.15-4.62,5.47-3.35,10-2.94l13.5,1.24-1.3-2.26c-2.66,4.73,0,11.73,5.73,12.58,6.79,1,10.48-6.6,9.53-12.28l-1.45,1.9c5.75-.46,11.93-1.65,17.7-1.41,5.55.23,4.93,6,9.13,7.59,7.39,2.8,9.62-7,9.85-12l-1.1,1.45c12.09-4.25,26.31-10.44,32.75-22.27,5.29-9.72,7-25.22.16-34.59-1.44-2-3.4-3-5.52-4.1-3.91-2.07-7.84-4.12-11.72-6.25-7.78-4.25-15.48-8.66-23.13-13.13C243.21,77,228.64,68.84,214.67,59.85c-6.71-4.32-13.23-9.16-18.4-15.3C191.53,38.9,188.6,32,183.8,26.41c-8.48-9.87-22-11.48-34.21-10.1-7,.79-20.64,5.56-21.1-5.71-.19-4.64,0-8.71-5.4-10.17C112-2.6,104.2,11.15,99.55,18.76c-4.48,7.34-9.85,14.39-18,17.91C74.41,39.77,68.19,38.35,62,34c-7.28-5.1-13.88-12.22-19.17-19.13-1.16-1.51-3.77,0-2.59,1.51C48.36,27,61.59,43.37,76.5,41.25c12.08-1.72,20.08-11.85,26-21.58,3.36-5.51,6.82-11.88,12.71-15.06,4.21-2.27,9.91-2.29,10.41,3.67.22,2.56-.48,4.76.73,7.18,2.18,4.35,7.13,5.83,11.68,5.57,6.64-.38,13-2.23,19.74-2.15,7.14.08,14.45,1.61,20.17,6.1C184,29.73,187,37,191.39,43.14,199.3,54,210.81,61.19,222.18,68c14.26,8.49,28.5,17,42.91,25.28,8,4.56,16,9,24.12,13.26,3.8,2,6.28,3.6,8.12,7.56,2.08,4.47,2.07,9.33,1.63,14.16-.79,8.85-4.13,16.46-11,22.22s-15.27,9.46-23.7,12.42a1.56,1.56,0,0,0-1.1,1.45c-.12,2.62-.06,5.19-1.91,7.23q-1.91,4.27-5.72-1.24l-.45-1.05c-1.32-1.69-2-2.75-4.25-3.32-2.58-.67-5.48-.08-8.08.13l-13.26,1.07A1.53,1.53,0,0,0,228,169c.56,3.35-1.39,8.62-5.57,8.58-3.92,0-5.93-5.08-4.2-8.16a1.52,1.52,0,0,0-1.3-2.26l-11.57-1.07c-3.22-.3-7.39-1.41-10.56-.61-5,1.24-4.62,12.35-10.21,7.53-3.62-3.13-2.12-9.05-6.87-11.6-4.43-2.37-9.89-.07-14.53-1.82a1.5,1.5,0,0,0-1.85,1c-.2,1.16-.47,4.32-1.35,5.05l-2.81.13q-2.94,1.45-3.38-1.15c-1.39-1.44-2.18-3.69-3.64-5.23-3.68-3.89-8.6-6.47-13.28-9a207.22,207.22,0,0,0-32-13.69c-7.37-2.44-17.47-5.38-24.3,0-2.5,2-3.47,4.56-4.67,7.41-1.07,2.54-2.7,5.45-6,4.39-3.09-1-3-3.16-3.12-5.5-.11-2.18.11-4-.74-6.08-2.26-5.51-9.6-8.5-14.91-5.55-2.78,1.54-4.39,4.5-6,7.11-1.06,1.73-2.31,4.36-4.26,5.29-4,1.93-5.79-2.56-6.82-5.38-1.26-3.44-2.06-7.12-4.43-10-2.64-3.22-6.52-4.69-9.94-6.87C8.35,114.45,3.35,102,3.17,89.05A112.19,112.19,0,0,1,5.32,66.71c1.43-7.58,2.95-15.85,6.09-22.93C14,38,17.87,32.68,21.73,27.64c4.89-6.4,11.41-11.22,19.84-10.47C43.49,17.34,43.48,14.34,41.57,14.17Z"/></g></g></svg>