<svg xmlns="http://www.w3.org/2000/svg" viewBox="0 0 392.5 355.93"><defs><style>.cls-1{fill:#fafcfc;}.cls-2{fill:#020202;}</style></defs><title>shorts</title><g id="Layer_2" data-name="Layer 2"><g id="shorts"><path class="cls-1" d="M138.62,13.41c10.42.52,20.78,2.31,31.2,1.85,12.29-.55,22.33-.85,41.79-1.75,86.23-4,67.26-8.67,101.09-12,1,27,9.29,36.16,15.86,54,10.22,27.76,32.15,126.11,35.68,147,6.94,41,23.79,76,26.76,130-16.85,2-34.27,8.3-51.23,11.4-33.4,6.1-47.64,8.36-85.54,7.6-3.65-.07-41.63-5-41.63-5s-6.17-23.44-6.94-27c-4.58-21.16-3.37-31.19-7.94-52.35-2,25.35-5.21,51.92-4,82.35-90.19,9-122.9,5-171.46-6-4.67-1.06-20.81-8-20.81-8S9.15,179.55,15,115.08a463.09,463.09,0,0,1,8.14-51.33C26.27,50.13,25,28.14,29.25,28.51c2.11.19.88-18.94,0-24C29.25,4.51,100.61,11.51,138.62,13.41Z"/><path class="cls-2" d="M138.62,14.91c10.83.62,21.55,2.23,32.42,1.79l21.69-.88c18.56-.75,37.13-1.56,55.65-3a276,276,0,0,0,43.89-6.48A150.19,150.19,0,0,1,312.7,3l-1.5-1.5A99.89,99.89,0,0,0,319,37c3.64,8.5,7.58,16.78,10.39,25.61,5.86,18.41,10.38,37.28,14.9,56q7.47,31,14.1,62.13c3.81,18,6.82,36.08,11.55,53.87,8.61,32.39,17.59,64.18,19.55,97.84L391,331c-16.94,2.16-33.1,7.83-49.81,11.11-13.62,2.67-27.4,5.1-41.21,6.53a285.66,285.66,0,0,1-64.84-.79q-11.27-1.39-22.54-2.86l1.45,1.1c-2.3-8.73-4.73-17.46-6.77-26.26-4.05-17.48-4.4-35.54-8.11-53.09-.37-1.75-2.82-1.2-2.95.4-2.16,27.45-5,54.77-4,82.35l1.5-1.5c-43.65,4.33-88.1,7.87-131.75,1.61-15.88-2.28-32.82-4.66-47.82-10.5-3.37-1.31-6.94-3.45-10.46-4.27-1.91-.44-.8-1.24-.74.63a1.83,1.83,0,0,1,0-.64c.92-1.52.31-6.14.39-7.87,3.44-68.35,6.69-136.8,12.46-205q1.51-17.78,4.4-35.37c2-12.11,5.13-24,6.23-36.26.52-5.78.42-11.94,1.8-17.6a5.58,5.58,0,0,1,1.54-2.84c.54-.61,1-.7,1.39-1.52,1.6-3,.7-8.4.57-11.6A106.63,106.63,0,0,0,30.7,4.11L29.25,6c36.38,3.57,72.85,7,109.36,8.9,1.93.1,1.92-2.9,0-3C102.1,10.05,65.63,6.57,29.25,3c-1.07-.1-1.59,1-1.45,1.9a102,102,0,0,1,1.11,16.79c0,1.22-.07,2.43-.13,3.65,0,.25-.4,2.44.11,1.69-.59.87-2,1.08-2.71,2.44C24,33.84,24.35,40.1,24,44.81A170.94,170.94,0,0,1,20.88,67c-5.5,25.85-7.89,52-9.81,78.32C7.38,196,4.62,246.63,2,297.31q-1,19.1-2,38.2a1.45,1.45,0,0,0,.74,1.3C9.21,340.44,17.64,344,26.65,346c10.8,2.39,21.65,4.57,32.59,6.2,24.28,3.63,48.8,4.27,73.31,3.33,20.45-.79,40.86-2.52,61.23-4.54a1.53,1.53,0,0,0,1.5-1.5c-1.05-27.58,1.79-54.9,4-82.35l-2.95.4c3.71,17.55,4.06,35.61,8.11,53.09,2,8.8,4.47,17.52,6.77,26.26a1.56,1.56,0,0,0,1.45,1.1c13.63,1.77,27.4,4.17,41.13,5,26.23,1.54,52.44-1.53,78.2-6.13C351.75,343.3,371,336.55,391,334a1.53,1.53,0,0,0,1.5-1.5c-1.72-29.42-8.43-57.71-16.23-86-5.35-19.43-9.3-39-13.35-58.67C354.74,148,345.9,108,334.46,69a195.9,195.9,0,0,0-9.35-25.59c-6.18-13.7-10.24-26.7-10.9-41.87A1.51,1.51,0,0,0,312.7,0c-11.2,1.12-21.76,4-32.76,6.09-26.35,5.05-53.86,5.32-80.56,6.45-8.25.35-16.49.65-24.74,1-12.13.51-23.94-.94-36-1.64C136.69,11.8,136.69,14.8,138.62,14.91Z"/></g></g></svg>