<svg xmlns="http://www.w3.org/2000/svg" viewBox="0 0 338.38 405.74"><defs><style>.cls-1{fill:#f9f9f9;}.cls-2{fill:#020202;}</style></defs><title>socks</title><g id="Layer_2" data-name="Layer 2"><g id="socks"><path class="cls-1" d="M85.25,5.42a16,16,0,0,1,6,1c2,1,3,6.29,3,8-.46,26.66,1,49-1,76-2.8,37.81-15.06,73.72-22.65,110.87-1.94,9.5-3.67,19.1-3.78,28.8,0,4.47.25,8.94.55,13.4l1.68,25c2.3,34.3,4.61,68.69,10.89,102.49,1.06,5.68,3.24,13,1.31,18.39-1.12,3.16-5,8-7,9-13.45,6.72-28.52,7-43,3-5.1-1.42-9.26-1.63-14-4-8-4-12-9-12-13,0-26.08,4.4-54.7,8-81a365.27,365.27,0,0,0,3-52c-1-31-3.52-61-8.63-91.31C.25,116.42.18,72.86,4,29.32c.84-9.54,1.22-16.9,6.34-27.85C10.37,1.48,57.22,9.58,85.25,5.42Z"/><path class="cls-2" d="M85.25,6.92c3-.12,5.38.22,6.64,3.08a15.27,15.27,0,0,1,.83,6.36q-.09,11.2,0,22.4c.12,14,.28,28-.38,42-1.41,29.68-8.34,58.26-15.48,87-3.36,13.53-6.72,27.08-9.19,40.81-2.59,14.39-2.26,28.16-1.28,42.68,2,29.72,3.65,59.5,7.34,89.08q1.23,9.85,2.78,19.65c1.17,7.29,3.27,14.65,3.89,22,1.37,16-16.29,20.26-29,20.61A72.66,72.66,0,0,1,31.65,400c-7.13-1.78-14.17-3-20-7.87-5.14-4.28-5-8.64-4.79-14.85.21-7.36.72-14.72,1.39-22.05,2.5-27.24,7.78-54.14,9.13-81.48,1.28-25.87-.6-52-3.34-77.67C12.32,179.93,9.49,164,7.26,148A453.76,453.76,0,0,1,3.18,97.59c-.45-16.91,0-33.84,1-50.72C5.14,31.8,5.33,16.2,11.66,2.23L10,2.92c24.54,4.22,50.9,7.44,75.68,3.94,1.9-.27,1.09-3.16-.8-2.89C60.66,7.39,34.72,4.15,10.77,0A1.54,1.54,0,0,0,9.07.72C3.77,12.43,2.86,24.46,1.88,37.12.62,53.34-.06,69.61,0,85.88a477.74,477.74,0,0,0,2.62,48.81c1.66,15.49,4.57,30.79,6.61,46.23,3.82,29,6.45,58.74,5.35,88-1.09,29-6.69,57.44-9.34,86.28-.67,7.34-1.18,14.69-1.39,22.05-.15,5.25-.7,9.71,2.71,14,7.49,9.37,21.87,11.82,33,13.52s26.29,1.3,36.07-5.44c9.58-6.61,8-17.39,6-27.23-6.28-31.5-8.43-63.79-10.6-95.78-1.08-15.91-3.21-32.19-2.71-48.15.52-16.39,4.85-32.76,8.68-48.63,8.06-33.35,16.9-66.22,18.38-100.69.73-17,.26-34.06.23-51.1,0-6.17,1.4-13.75-1.29-19.58-1.68-3.65-5.3-4.39-9.12-4.24C83.32,4,83.31,7,85.25,6.92Z"/><path class="cls-1" d="M243.49,9.54c2-.16,4.31-.63,5.83.71s1.54,3.32,1.56,5.18c.7,67.66-26.23,130.85-34.63,198-3,24-7.51,50,2,73,7,16.88,20.13,29,33,42,14.37,14.47,29.09,29.23,47,39,11,6,24.5,10.29,36,19,3.57,2.7,2.86,10.57,1,12-13,10-51.27,3.73-73,4-9.53.12-22.16-1.44-31-5-13.28-5.35-23.59-15.17-34-25-11.93-11.27-18-16-33-22-8-3.18-18.72-4.57-23-12-1.92-3.34-7-14-3-24,15.6-39,8-76,5.76-117.22-1.74-32-6.11-63.9-7.1-96s1.78-64.86,14.3-94.4C151.2,6.84,206.25,12.42,243.49,9.54Z"/><path class="cls-2" d="M243.49,11c2-.18,4.43-.69,5.68,2,.39.82.19,2.44.21,3.35.06,2.14,0,4.3,0,6.44q-.13,6.87-.6,13.72c-.63,9.26-1.71,18.48-3.11,27.66C243,81.3,239.3,98.25,235.31,115.11c-8,33.77-16.59,67.27-21,101.75-2.16,16.86-4.65,34-2.43,51,1.95,14.89,8.15,28,17.54,39.63,10,12.32,21.83,23.42,33.24,34.37,11.7,11.22,24.27,21.77,38.89,29,7,3.46,14.28,6.39,21.17,10.1a62.72,62.72,0,0,1,9.38,5.78c3.05,2.43,4.93,8.18,1.36,11.15-3.87,3.22-10.87,3.85-15.61,4.3a151.9,151.9,0,0,1-19.33.33c-12.59-.42-25.13-1.47-37.73-1.55-17.63-.11-33.37-4.88-47.23-15.91-11-8.75-20.15-19.79-31.93-27.54a90.14,90.14,0,0,0-17-8.5c-6.34-2.46-13.84-3.52-19.18-8-5.08-4.23-7.38-12.75-7.19-19.09.14-4.73,2.18-8.8,3.68-13.19a128.47,128.47,0,0,0,3.68-13c3.63-15.93,4.14-32.35,3.41-48.62-1.58-35.6-5.09-71.2-8.14-106.7-3.1-36-5.17-72.87,3.54-108.29a170.73,170.73,0,0,1,8.2-24.89l-1.45,1.1c30.48,3.08,61.7,5,92.28,2.7,1.91-.14,1.93-3.14,0-3-30.59,2.27-61.8.37-92.28-2.7a1.53,1.53,0,0,0-1.45,1.1C135.47,40.74,133.93,78.33,136,115c1.16,20.26,3.33,40.45,5,60.68,1.52,18.57,2.64,37.17,4,55.75,1.38,18.27,2.24,36.77-.66,54.95a137.44,137.44,0,0,1-6.91,25.94,29.39,29.39,0,0,0,0,21.65c1.82,4.81,4.37,8.73,8.9,11.38,5.84,3.42,12.74,4.62,19,7.18,14.56,6,25,15.74,36.45,26.28,12,11,24.72,20.38,41,23.44,13.62,2.55,27.81,1.8,41.61,2.59,13.07.75,26.65,1.91,39.62-.48,3.87-.71,9.34-1.86,12.25-4.83,2.72-2.78,2.5-8.53.82-11.76-1.33-2.56-4-4-6.35-5.55a107.23,107.23,0,0,0-11.74-6.5c-7.18-3.49-14.62-6.45-21.57-10.4-15.95-9-29.23-21.92-42.08-34.81-11.94-12-25-23.73-33.05-38.86-9.05-17.09-9.21-36.67-7.36-55.47,3.69-37.5,12.06-73.88,20.88-110.44C244.43,90.19,252.63,54,252.39,17.27c0-6.63-1.84-9.88-8.9-9.23C241.58,8.22,241.56,11.22,243.49,11Z"/></g></g></svg>